/* XPM */
static char *b506fe47a2844fdbe3a0169be7c1fa960lYa0qEHIhTIqde6[] = {
/* columns rows colors chars-per-pixel */
"64 64 256 2 ",
"   c black",
".  c #010101",
"X  c #020202",
"o  c gray1",
"O  c #040404",
"+  c gray2",
"@  c #060606",
"#  c #070707",
"$  c gray3",
"%  c #090909",
"&  c gray4",
"*  c #0B0B0B",
"=  c #0C0C0C",
"-  c gray5",
";  c #0E0E0E",
":  c gray6",
">  c #101010",
",  c #111111",
"<  c gray7",
"1  c #131313",
"2  c gray8",
"3  c #151515",
"4  c #161616",
"5  c gray9",
"6  c #181818",
"7  c #191919",
"8  c gray10",
"9  c #1B1B1B",
"0  c gray11",
"q  c #1D1D1D",
"w  c #1E1E1E",
"e  c gray12",
"r  c #202020",
"t  c gray13",
"y  c #222222",
"u  c #232323",
"i  c gray14",
"p  c #252525",
"a  c gray15",
"s  c #272727",
"d  c #282828",
"f  c gray16",
"g  c #2A2A2A",
"h  c gray17",
"j  c #2C2C2C",
"k  c #2D2D2D",
"l  c gray18",
"z  c #2F2F2F",
"x  c gray19",
"c  c #313131",
"v  c #323232",
"b  c gray20",
"n  c #343434",
"m  c #353535",
"M  c gray21",
"N  c #373737",
"B  c gray22",
"V  c #393939",
"C  c #3A3A3A",
"Z  c gray23",
"A  c #3C3C3C",
"S  c gray24",
"D  c #3E3E3E",
"F  c #3F3F3F",
"G  c gray25",
"H  c #414141",
"J  c gray26",
"K  c #434343",
"L  c #444444",
"P  c gray27",
"I  c #464646",
"U  c gray28",
"Y  c #484848",
"T  c #494949",
"R  c gray29",
"E  c #4B4B4B",
"W  c #4C4C4C",
"Q  c gray30",
"!  c #4E4E4E",
"~  c gray31",
"^  c #505050",
"/  c #515151",
"(  c gray32",
")  c #535353",
"_  c gray33",
"`  c #555555",
"'  c #565656",
"]  c gray34",
"[  c #585858",
"{  c gray35",
"}  c #5A5A5A",
"|  c #5B5B5B",
" . c gray36",
".. c #5D5D5D",
"X. c gray37",
"o. c #5F5F5F",
"O. c #606060",
"+. c gray38",
"@. c #626262",
"#. c gray39",
"$. c #646464",
"%. c #656565",
"&. c gray40",
"*. c #676767",
"=. c #686868",
"-. c DimGray",
";. c #6A6A6A",
":. c gray42",
">. c #6C6C6C",
",. c #6D6D6D",
"<. c gray43",
"1. c #6F6F6F",
"2. c gray44",
"3. c #717171",
"4. c #727272",
"5. c gray45",
"6. c #747474",
"7. c gray46",
"8. c #767676",
"9. c #777777",
"0. c gray47",
"q. c #797979",
"w. c gray48",
"e. c #7B7B7B",
"r. c #7C7C7C",
"t. c gray49",
"y. c #7E7E7E",
"u. c gray50",
"i. c #808080",
"p. c #818181",
"a. c gray51",
"s. c #838383",
"d. c #848484",
"f. c gray52",
"g. c #868686",
"h. c gray53",
"j. c #888888",
"k. c #898989",
"l. c gray54",
"z. c #8B8B8B",
"x. c gray55",
"c. c #8D8D8D",
"v. c #8E8E8E",
"b. c gray56",
"n. c #909090",
"m. c gray57",
"M. c #929292",
"N. c #939393",
"B. c gray58",
"V. c #959595",
"C. c gray59",
"Z. c #979797",
"A. c #989898",
"S. c gray60",
"D. c #9A9A9A",
"F. c #9B9B9B",
"G. c gray61",
"H. c #9D9D9D",
"J. c gray62",
"K. c #9F9F9F",
"L. c #A0A0A0",
"P. c gray63",
"I. c #A2A2A2",
"U. c gray64",
"Y. c #A4A4A4",
"T. c #A5A5A5",
"R. c gray65",
"E. c #A7A7A7",
"W. c gray66",
"Q. c #A9A9A9",
"!. c #AAAAAA",
"~. c gray67",
"^. c #ACACAC",
"/. c gray68",
"(. c #AEAEAE",
"). c #AFAFAF",
"_. c gray69",
"`. c #B1B1B1",
"'. c #B2B2B2",
"]. c gray70",
"[. c #B4B4B4",
"{. c gray71",
"}. c #B6B6B6",
"|. c #B7B7B7",
" X c gray72",
".X c #B9B9B9",
"XX c gray73",
"oX c #BBBBBB",
"OX c #BCBCBC",
"+X c gray74",
"@X c gray",
"#X c gray75",
"$X c #C0C0C0",
"%X c #C1C1C1",
"&X c gray76",
"*X c #C3C3C3",
"=X c gray77",
"-X c #C5C5C5",
";X c #C6C6C6",
":X c gray78",
">X c #C8C8C8",
",X c gray79",
"<X c #CACACA",
"1X c #CBCBCB",
"2X c gray80",
"3X c #CDCDCD",
"4X c #CECECE",
"5X c gray81",
"6X c #D0D0D0",
"7X c gray82",
"8X c #D2D2D2",
"9X c LightGray",
"0X c gray83",
"qX c #D5D5D5",
"wX c gray84",
"eX c #D7D7D7",
"rX c #D8D8D8",
"tX c gray85",
"yX c #DADADA",
"uX c gray86",
"iX c gainsboro",
"pX c #DDDDDD",
"aX c gray87",
"sX c #DFDFDF",
"dX c gray88",
"fX c #E1E1E1",
"gX c #E2E2E2",
"hX c gray89",
"jX c #E4E4E4",
"kX c gray90",
"lX c #E6E6E6",
"zX c #E7E7E7",
"xX c gray91",
"cX c #E9E9E9",
"vX c #EAEAEA",
"bX c gray92",
"nX c #ECECEC",
"mX c gray93",
"MX c #EEEEEE",
"NX c #EFEFEF",
"BX c gray94",
"VX c #F1F1F1",
"CX c gray95",
"ZX c #F3F3F3",
"AX c #F4F4F4",
"SX c gray96",
"DX c #F6F6F6",
"FX c gray97",
"GX c #F8F8F8",
"HX c #F9F9F9",
"JX c gray98",
"KX c #FBFBFB",
"LX c gray99",
"PX c #FDFDFD",
"IX c #FEFEFE",
"UX c white",
/* pixels */
"K.K.K.H.A.A.A.D.L.L.L.K.G.G.G.S.m.n.n.M.F.G.G.F.Z.Z.Z.C.B.B.B.B.B.B.B.B.V.B.B.B.B.B.B.V.S.D.D.S.b.c.c.c.b.b.b.b.b.v.v.z.=.o.+.O.",
"K.K.K.H.A.A.A.D.L.L.L.K.G.G.G.D.m.n.n.M.F.G.G.F.Z.Z.Z.C.B.B.B.B.B.B.B.B.B.B.B.B.B.B.B.V.S.D.D.S.b.c.c.c.b.b.b.b.v.v.v.z.=.o.O.O.",
"K.K.K.H.A.A.A.D.L.L.L.K.G.G.G.D.m.n.n.N.F.G.G.F.A.Z.Z.Z.B.B.B.B.B.B.B.B.B.B.B.B.B.B.B.V.S.D.D.D.b.c.c.c.b.b.b.v.v.v.b.z.=.o.O.O.",
"J.J.K.G.V.V.V.Z.F.F.F.D.A.A.A.V.x.z.z.v.Z.A.A.Z.B.B.B.B.M.M.M.m.v.v.v.v.n.n.n.n.n.n.n.n.N.B.B.N.x.l.l.z.x.x.x.x.z.l.z.h.=.O.O.O.",
"G.G.G.Z.z.k.k.k.l.l.l.l.k.k.k.g.e.w.w.t.j.k.k.k.j.k.k.k.k.k.k.h.8.7.7.9.u.i.i.u.i.i.i.u.r.e.e.r.u.i.i.i.i.i.p.i.t.r.r.w.&.+.+.+.",
"G.G.G.Z.k.j.j.j.j.j.j.j.j.j.j.f.q.q.q.r.h.j.k.k.j.j.j.j.j.j.j.f.7.5.5.7.u.u.u.u.u.u.u.y.q.q.q.q.y.u.u.u.u.u.u.u.r.e.e.0.&.+.+.@.",
"G.G.G.Z.k.j.k.j.j.j.j.j.j.j.j.f.w.q.q.r.h.j.j.j.k.k.j.j.j.j.j.f.7.5.5.7.u.u.u.y.u.u.u.y.w.q.q.w.y.u.u.u.u.u.u.u.r.e.e.0.&.O.+.+.",
"D.D.D.B.h.f.f.f.f.f.f.f.f.f.f.s.r.r.r.y.g.f.f.f.g.g.g.g.g.g.h.d.9.7.7.9.i.p.p.i.u.u.u.y.e.w.w.e.y.u.u.u.t.t.t.r.q.0.0.8.%.O.O.O.",
"m.m.m.z.e.w.w.w.w.w.w.w.w.w.w.t.g.h.j.d.e.w.w.e.i.i.i.i.i.i.i.i.y.t.y.u.g.h.h.g.i.u.u.y.u.u.u.u.i.u.u.y.8.6.6.5.,.>.>.:.O.X.....",
"n.n.n.l.w.q.q.q.q.q.q.q.q.q.q.r.h.j.j.f.e.q.q.w.u.u.u.u.u.u.u.u.u.u.u.i.h.j.h.h.i.u.u.y.u.u.u.u.u.u.y.y.7.5.5.4.>.:.:.;.o.......",
"n.n.n.l.w.q.q.q.q.q.q.q.q.q.q.r.h.j.j.f.w.q.q.w.u.u.u.u.u.u.u.u.u.u.u.i.h.j.j.h.i.u.u.u.u.u.u.u.u.u.u.y.7.5.5.4.>.:.:.;.o.......",
"n.m.M.l.w.0.0.0.w.w.w.w.r.r.r.u.f.g.g.d.e.w.w.e.y.y.y.y.y.y.y.y.y.y.y.u.f.f.f.d.u.y.y.y.u.u.u.u.u.u.u.y.q.9.9.8.,.:.>.:.O.......",
"Z.A.Z.c.6.5.5.8.y.u.y.p.h.h.h.f.i.i.i.i.u.u.u.u.q.q.q.q.q.q.q.q.q.q.q.w.w.w.w.w.q.q.q.w.t.u.u.u.i.u.u.p.f.h.h.f.4.1.<.,.@.o.o.o.",
"Z.Z.A.c.6.5.5.9.u.u.u.p.j.j.j.g.u.u.u.u.u.u.u.y.q.q.q.q.q.q.q.q.q.q.q.w.q.q.q.q.q.q.q.w.y.u.u.u.u.u.u.i.h.j.j.g.4.<.<.,.@.o.o.o.",
"Z.Z.A.c.6.5.5.8.u.u.u.p.j.j.j.g.i.u.u.u.u.u.u.y.q.q.q.q.q.q.q.q.q.q.q.q.q.q.q.q.q.q.q.w.y.u.u.u.u.u.i.i.h.h.j.g.4.<.<.,.@.o.o.o.",
"C.Z.Z.c.7.6.6.9.y.y.y.i.f.f.f.d.y.y.y.y.y.y.y.y.r.r.r.r.r.r.r.r.r.r.r.r.r.r.r.r.r.r.r.r.t.t.t.t.u.u.u.i.h.j.j.g.5.1.1.<.@.X.o.o.",
"B.B.B.c.w.q.q.q.q.q.q.w.w.w.w.w.q.q.q.q.q.q.q.r.f.h.h.h.h.h.h.h.h.h.h.h.h.h.h.h.h.h.h.f.9.6.6.7.t.u.u.i.h.j.j.g.9.5.6.4.+.......",
"B.B.B.c.w.q.q.q.q.q.q.q.q.q.q.q.q.q.q.q.q.q.q.r.h.j.j.j.j.j.j.j.j.j.j.j.j.j.j.j.j.j.j.g.8.4.5.6.t.i.u.i.h.j.j.g.9.6.6.4.+.......",
"B.B.B.c.w.q.q.q.q.q.q.q.q.q.q.q.q.q.q.q.q.q.q.r.h.j.j.j.j.j.j.j.j.j.j.j.j.j.j.j.j.j.j.g.8.5.5.6.t.u.u.i.h.j.j.h.9.6.6.4.+.......",
"B.B.B.c.w.q.q.q.q.q.q.q.q.q.q.w.w.w.w.w.0.0.0.e.f.g.g.g.g.g.g.g.f.f.f.f.f.f.f.f.f.d.f.s.9.7.7.8.t.y.y.y.d.g.g.d.7.4.5.3.+...X...",
"N.N.N.x.w.q.q.q.q.q.q.q.q.q.q.q.y.y.u.r.6.5.5.8.u.i.i.i.i.i.i.u.e.w.w.w.w.w.w.w.7.7.7.8.t.y.y.y.w.q.q.w.w.q.w.q.,.:.:.;.#.+.+.+.",
"N.N.N.x.w.q.q.q.q.q.q.q.q.q.q.w.u.u.u.t.6.5.5.7.y.u.u.u.u.u.u.y.w.q.q.q.q.q.q.0.6.5.5.6.y.u.u.y.w.q.q.q.q.q.w.0.>.;.;.-.#.+.+.+.",
"N.N.N.x.w.q.q.q.q.q.q.q.q.q.q.w.u.u.u.t.6.5.5.7.y.u.u.u.u.u.u.y.w.q.q.q.q.q.q.0.6.5.5.6.y.u.u.y.w.q.q.q.q.q.q.0.>.;.;.-.#.+.+.+.",
"M.M.M.z.q.0.0.0.q.q.q.q.0.0.0.q.r.r.r.w.5.4.4.6.r.r.r.r.r.r.r.e.q.0.0.0.0.0.0.9.5.4.4.4.w.e.e.w.9.9.9.9.0.0.0.9.,.:.:.;.#.+.+.+.",
"c.c.v.g.5.5.4.7.0.0.0.9.7.6.6.5.1.1.1.1.1.<.<.<.1.2.1.1.1.1.1.2.6.6.6.6.6.6.6.6.3.2.2.1.=.*.*.=.>.,.,.<.5.6.6.6.4.3.2.2.%.+.+.+.",
"v.c.c.g.5.4.4.5.0.0.q.9.6.6.6.5.<.<.<.<.<.<.<.<.<.<.<.<.<.<.<.1.5.6.6.6.6.6.5.5.2.2.2.1.*.%.$.&.:.>.>.,.5.6.6.6.4.5.4.3.$.+.+.+.",
"c.c.v.g.5.4.4.6.0.0.0.8.6.6.6.5.<.<.<.<.<.<.<.<.<.<.<.<.<.<.<.1.6.6.6.6.6.6.6.6.2.2.2.1.&.%.%.&.:.>.>.,.5.6.6.6.5.4.4.3.$.+.+.+.",
"f.f.g.i.1.1.<.2.5.6.6.5.2.2.2.1.>.>.:.:.:.:.:.:.:.:.:.:.:.:.:.>.2.2.2.2.2.2.2.2.<.<.<.,.&.$.$.%.-.-.;.:.2.3.3.4.1.1.1.<.#.O.O.O.",
"+.+.+.O.o.o.o.o.O.o.o.o.o.o.o.o.X.X.X.X.X.X.X.X.o.X.X.X.X.X.X.X. .......o.o.o.o.@.@.@.@.@.@.@.@.+.+.+.+.@.@.@.@.+.+.+.O.X.......",
"......................................................X.........| | | | ........O.+.+.+.@.@.@.@.+.O.O.O.O.O.O.O.o.o.o.o.........",
" . . .|  ... . . . . . . . . . . . . . . . . . . . . ... .......| } } |  . . ...O.O.O.+.+.+.@.+.O.o.o.o.o.o.o.o.o.X.o.X... . . .",
"&.&.&.&.&.&.&.&.&.&.&.&.&.&.&.&.*.*.*.*.*.*.*.*.&.*.&.$.X.....o.&.&.&.&.*.*.*.*.-.;.;.;.-.-.-.-.-.-.=.-.-.-.-.-.*.*.*.&.*.*.&.*.",
"b.b.b.n.M.M.M.M.M.M.M.M.m.M.M.N.C.C.C.V.C.C.C.V.m.n.m.j.#.o.o.-.A.J.J.H.A.Z.A.Z.C.C.C.B.z.k.k.l.M.N.N.B.C.Z.Z.C.c.x.x.x.B.Z.C.C.",
"B.B.B.V.Z.Z.Z.Z.Z.C.Z.Z.Z.Z.Z.A.G.G.G.G.G.G.G.F.Z.C.Z.c.#.o.X.;.J.T.Y.U.J.H.H.H.F.F.F.D.b.c.c.v.Z.A.A.S.G.G.G.F.M.n.n.m.D.G.G.G.",
"B.B.B.V.Z.Z.Z.Z.Z.Z.A.Z.Z.Z.Z.A.G.G.H.G.G.G.G.F.Z.C.Z.x.#.o.X.;.J.T.Y.U.J.H.H.H.F.F.F.D.b.c.c.v.Z.A.A.S.G.G.G.F.M.n.n.m.D.G.G.G.",
"n.n.n.m.M.M.M.N.B.N.N.N.M.M.m.N.Z.A.A.A.A.A.A.C.m.n.m.j.#.X...-.G.I.I.P.F.D.D.S.Z.Z.C.B.x.l.z.x.M.M.N.B.C.Z.Z.C.v.x.x.v.V.Z.Z.Z.",
"e.e.e.e.r.r.r.t.a.p.p.u.9.8.8.q.p.a.a.a.a.a.a.i.6.5.5.1.o.....&.n.V.C.B.z.l.l.k.s.a.p.p.i.i.i.i.r.r.r.r.t.r.r.r.e.e.e.w.r.r.e.r.",
"q.q.q.q.q.q.q.w.u.u.u.r.5.5.5.7.y.u.u.u.u.u.u.r.2.1.1.>.X... .&.b.B.B.M.k.j.j.j.i.u.u.u.u.u.u.y.w.q.q.q.q.q.q.q.0.q.q.q.q.q.q.q.",
"q.q.q.q.q.q.q.w.u.u.u.r.6.6.5.8.y.u.u.u.u.u.u.r.2.1.1.>.X... .&.b.B.B.M.k.j.j.h.i.u.u.u.u.u.u.y.w.q.q.q.q.q.q.q.q.q.q.q.q.q.q.q.",
"e.e.e.e.e.e.e.r.y.y.y.e.5.5.5.7.t.y.y.u.i.i.p.t.3.2.2.,.o.....&.n.V.V.M.j.h.h.g.i.u.u.u.u.u.u.y.e.q.w.w.e.e.e.e.q.q.q.q.q.0.0.q.",
"h.h.h.h.h.h.h.s.w.w.w.0.5.4.5.6.q.w.q.r.g.h.h.d.9.8.8.4.+.O.o.=.M.Z.Z.N.a.i.i.u.u.u.u.u.u.u.u.u.y.y.y.u.f.h.h.f.e.q.q.q.q.q.q.q.",
"j.j.j.j.h.j.j.d.q.q.q.0.5.5.5.6.q.q.q.t.h.j.j.f.9.8.8.4.@.O.o.-.M.Z.Z.B.p.u.u.u.u.u.u.u.u.u.u.u.u.u.u.i.h.j.j.h.e.q.q.q.q.q.q.q.",
"j.j.j.j.j.j.j.d.q.q.q.0.5.5.5.6.0.q.q.r.h.j.j.f.9.9.8.4.@.O.o.-.M.Z.Z.B.p.u.u.i.i.u.u.u.u.u.u.u.u.u.u.i.h.j.j.h.e.q.q.q.q.q.q.q.",
"h.h.h.h.h.h.g.s.w.w.w.q.8.7.8.9.e.e.e.t.g.h.h.s.8.7.7.3.@.O.o.-.N.A.A.B.s.p.i.i.y.t.t.t.t.t.t.t.u.u.u.i.g.h.h.f.r.w.w.w.q.q.q.q.",
"i.i.i.i.i.i.p.i.y.y.y.i.g.g.g.g.g.h.h.f.i.i.i.t.2.1.1.>.o.o.X.-.C.G.F.S.k.h.h.f.7.6.6.6.6.6.6.7.y.i.i.u.i.i.i.i.u.y.y.y.w.q.q.q.",
"u.u.u.u.u.y.u.u.u.u.i.p.k.j.j.j.j.j.j.g.u.u.u.r.1.<.<.:.O.o.X.-.Z.G.G.S.l.j.j.d.7.5.5.5.5.5.5.6.t.u.u.u.u.i.i.u.u.u.u.u.w.q.q.q.",
"u.u.u.u.i.u.u.u.u.u.u.p.j.h.j.j.j.j.j.g.i.y.u.r.1.<.<.:.O.o.X.-.Z.G.G.S.l.j.j.f.7.5.5.5.5.5.5.6.t.u.u.u.u.u.u.u.u.u.u.u.w.0.q.q.",
"y.y.y.y.y.y.y.y.y.y.y.i.j.j.j.j.k.h.j.g.i.y.y.e.<.,.<.>.O.o.X.=.C.G.F.A.j.g.g.d.9.7.7.7.7.7.7.8.r.y.y.y.y.y.y.y.y.y.y.y.w.0.q.q.",
"w.w.w.w.w.w.w.w.w.w.q.t.h.j.j.j.j.h.j.g.w.w.w.9.:.-.;.*.X.....&.n.V.C.m.t.w.e.e.t.y.y.y.y.y.y.t.w.w.w.w.w.w.w.e.w.w.w.w.q.q.q.q.",
"q.q.q.q.q.q.q.q.q.q.q.r.h.j.j.j.j.j.j.f.w.q.q.8.;.-.-.*.X... .&.b.B.V.b.r.q.q.w.y.u.u.u.u.u.u.u.w.q.w.q.q.q.q.q.q.q.q.q.q.q.q.q.",
"q.q.q.q.q.q.q.q.q.q.q.r.h.j.j.j.j.j.j.f.w.q.q.8.;.-.-.*.X... .&.b.B.B.n.r.q.q.q.y.u.u.u.u.u.u.u.w.q.q.0.q.q.q.q.0.q.q.q.q.0.q.q.",
"w.w.w.w.w.w.w.w.q.q.q.r.f.g.h.g.g.f.g.s.q.0.0.7.;.-.-.*.X.....%.n.B.B.n.t.e.e.e.i.i.i.i.u.u.u.u.r.e.e.r.q.q.q.q.e.e.e.e.q.0.q.0.",
"y.y.y.y.y.y.y.y.q.q.q.w.e.e.e.e.e.e.e.q.6.6.6.4.;.-.-.=.+.+.O.=.b.N.N.m.j.g.g.g.g.h.h.g.i.u.u.i.f.g.g.f.e.q.q.w.s.h.g.f.9.5.6.6.",
"u.u.u.u.u.u.u.y.q.q.q.q.q.q.q.q.q.q.q.0.5.5.5.3.;.-.-.=.@.+.O.-.b.N.N.m.k.j.j.j.j.j.j.h.i.u.u.i.h.j.j.j.e.w.q.w.g.j.j.h.9.5.6.5.",
"u.u.u.u.u.u.y.y.q.q.q.q.q.q.q.q.q.q.q.0.5.5.5.3.;.-.-.=.@.O.O.-.b.N.N.M.k.j.j.j.j.j.j.h.i.u.u.i.h.j.j.h.e.q.q.w.g.j.j.h.9.5.5.4.",
"r.r.r.r.r.r.e.e.9.9.9.9.0.0.0.0.9.9.9.8.5.5.5.4.:.:.:.-.@.+.+.-.v.M.M.n.g.d.d.f.g.g.g.f.y.t.t.u.d.f.f.s.w.9.0.q.p.s.d.s.7.4.4.4.",
":.:.:.:.:.:.:.:.:.:.:.>.2.1.1.<.>.>.:.,.5.6.6.6.8.8.9.5.#.@.+.=.h.z.z.h.3.1.1.2.0.q.q.0.6.5.5.5.3.3.3.3.1.1.1.1.,.>.>.>.:.;.;.;.",
"-.-.-.-.-.-.-.-.-.-.-.;.<.<.<.,.;.;.;.>.5.6.6.7.0.0.0.6.$.@.@.=.g.l.l.g.1.>.>.,.8.9.9.8.5.4.4.3.<.<.<.<.<.<.<.<.;.-.-.;.-.-.-.-.",
"-.-.-.-.-.-.-.-.-.-.-.;.<.<.<.,.;.:.;.>.6.6.6.7.0.0.0.6.$.@.@.=.h.z.z.g.2.>.>.<.8.9.9.9.5.4.4.4.1.<.<.<.<.<.<.<.;.-.-.-.-.-.-.-.",
"=.=.=.=.=.=.=.=.=.=.=.-.>.>.>.:.-.-.=.;.3.3.3.4.6.7.6.3.#.+.+.*.p.f.f.p.,.;.;.>.5.6.6.5.2.2.2.1.,.>.>.>.>.>.>.>.=.*.*.=.=.=.=.=.",
"+.+.+.+.+.+.+.+.O.O.O.O.+.+.@.+.O.O.O.+.+.+.+.+.O.O.O.O.X.X.X.X.@.@.#.@.O.O.O.O.$.$.$.$.@.@.@.@.+.+.+.+.o.o.o.o.X.X.X.X.X.X.X.X.",
"O.O.O.O.O.O.O.O.o.o.o.o.o.o.o.o.o.o.o.o.X.o.o.X...X.....................X.X.X.X.+.@.@.@.o.O.O.O.o.o.o.o.........................",
"O.O.O.O.O.O.O.O.o.o.o.o.o.o.o.o.o.o.o.X.o.o.o.o...........X. ...........X.X.X.o.@.@.@.@.O.O.O.O.o.o.o.o.........................",
"O.O.O.O.O.O.O.O.o.o.o.o.o.o.o.o.o.o.o.o.o.o.o.o.....................X...X.X.X.o.@.@.@.@.O.O.+.O.o.o.o.X........................."
};
