/* XPM */
static char *result[] = {
/* columns rows colors chars-per-pixel */
"64 64 111 2 ",
"   c #020201",
".  c #080705",
"X  c #0C0906",
"o  c #070909",
"O  c #0D0C0A",
"+  c #120B07",
"@  c #120E0A",
"#  c #14110D",
"$  c #1B140E",
"%  c #130E10",
"&  c #0E1112",
"*  c #131311",
"=  c #1B1611",
"-  c #1E1C16",
";  c #171C1D",
":  c #21160F",
">  c #201411",
",  c #241D14",
"<  c #291E15",
"1  c #211E18",
"2  c #1D201F",
"3  c #272017",
"4  c #2A2117",
"5  c #26221B",
"6  c #2C241A",
"7  c #29281E",
"8  c #30261A",
"9  c #33291B",
"0  c #231C20",
"q  c #1D2020",
"w  c #1F2528",
"e  c #2A2622",
"r  c #252927",
"t  c #2D2924",
"y  c #212628",
"u  c #252A2A",
"i  c #2C312F",
"p  c #37322E",
"a  c #3B342F",
"s  c #2A2F30",
"d  c #352B30",
"f  c #2C3335",
"g  c #343633",
"h  c #363836",
"j  c #3B3935",
"k  c #343A3A",
"l  c #3B3E3C",
"z  c #413E39",
"x  c #44413C",
"c  c #48433C",
"v  c #363F44",
"b  c #364043",
"n  c #3E4445",
"m  c #434542",
"M  c #4A4542",
"N  c #474945",
"B  c #494944",
"V  c #40474B",
"C  c #424C4A",
"Z  c #4B4E4A",
"A  c #56474F",
"S  c #54524B",
"D  c #454D51",
"F  c #4B5452",
"G  c #465359",
"H  c #49555B",
"J  c #4B595F",
"K  c #555651",
"L  c #585752",
"P  c #545955",
"I  c #5A5B55",
"U  c #525C59",
"Y  c #5C5E59",
"T  c #63535B",
"R  c #68565F",
"E  c #5D605B",
"W  c #63635D",
"Q  c #4E5C63",
"!  c #505E66",
"~  c #675960",
"^  c #725F68",
"/  c #5E6560",
"(  c #526169",
")  c #5C6C74",
"_  c #5E6E78",
"`  c #5F7179",
"'  c #636560",
"]  c #696760",
"[  c #636864",
"{  c #6B6A64",
"}  c #6D6E68",
"|  c #76626B",
" . c #6E706A",
".. c #71746D",
"X. c #7C6870",
"o. c #62737D",
"O. c #757670",
"+. c #757872",
"@. c #7A7D77",
"#. c #647781",
"$. c #6B7F89",
"%. c #6E828C",
"&. c #878C85",
"*. c #898D85",
"=. c #8C8F88",
"-. c #94978F",
";. c #999D95",
":. c #9DA299",
">. c #A7AAA2",
",. c #C2C7BD",
"<. c None",
/* pixels */
"<.<.<.<.<.<.<.<.<.<.<.<.<.<.<.<.<.<.<.<.<.<.<.<.<.<.<.<.<.<.<.<.<.<.<.<.<.<.<.<.<.<.<.<.<.<.<.<.<.<.<.<.<.<.<.<.<.<.<.<.<.<.<.<.",
"<.<.<.<.<.<.<.<.<.<.<.<.<.<.<.<.<.<.<.<.<.<.<.<.<.<.<.<.<.<.<.<.<.<.<.<.<.<.<.<.<.<.<.<.<.<.<.<.<.<.<.<.<.<.<.<.<.<.<.<.<.<.<.<.",
"<.<.<.<.<.<.<.<.<.<.<.<.<.<.<.<.<.<.<.<.<.<.<.<.<.<.<.<.<.<.<.<.<.<.<.<.<.<.<.<.<.<.<.<.<.<.<.<.<.<.<.<.<.<.<.<.<.<.<.<.<.<.<.<.",
"<.<.<.<.<.<.<.<.<.<.<.<.<.<.<.<.<.<.<.<.<.<.<.<.<.<.<.<.<.<.<.<.<.<.<.<.<.<.<.<.<.<.<.<.<.<.<.<.<.<.<.<.<.<.<.<.<.<.<.<.<.<.<.<.",
"<.<.<.<.<.<.<.<.<.<.<.<.<.<.<.<.<.<.<.<.<.<.<.<.<.<.<.<.<.<.<.<.<.<.<.<.<.<.<.<.<.<.<.<.<.<.<.<.<.<.<.<.<.<.<.<.<.<.<.<.<.<.<.<.",
"<.<.<.<.<.<.<.<.<.<.<.<.<.<.<.<.<.<.<.<.<.<.<.<.<.<.<.<.<.<.<.<.<.<.<.<.<.<.<.<.<.<.<.<.<.<.<.<.<.<.<.<.<.<.<.<.<.<.<.<.<.<.<.<.",
"<.<.<.<.<.<.<.<.<.<.<.<.<.<.<.<.<.<.<.<.<.<.<.<.<.<.<.<.<.<.<.<.<.<.<.<.<.<.<.<.<.<.<.<.<.<.<.<.<.<.<.<.<.<.<.<.<.<.<.<.<.<.<.<.",
"<.<.<.<.<.<.<.<.<.<.<.<.<.<.<.<.<.<.<.<.<.<.<.<.<.<.<.<.<.<.<.<.<.<.<.<.<.<.<.<.<.<.<.<.<.<.<.<.<.<.<.<.<.<.<.<.<.<.<.<.<.<.<.<.",
"<.<.<.<.<.<.<.<.<.<.<.<.<.<.<.<.<.<.<.<.<.<.<.<.<.<.<.<.<.<.<.<.<.<.<.<.<.<.<.<.<.<.<.<.<.<.<.<.<.<.<.<.<.<.<.<.<.<.<.<.<.<.<.<.",
"<.<.<.<.<.<.<.<.<.<.<.<.<.<.<.<.<.<.<.<.<.<.<.<.<.<.<.<.<.<.<.<.<.<.<.<.<.<.<.<.<.<.<.<.<.<.<.<.<.<.<.<.<.<.<.<.<.<.<.<.<.<.<.<.",
"<.<.<.<.<.<.<.<.<.<.<.<.<.<.<.<.<.<.<.<.<.<.<.<.<.<.<.<.<.<.<.<.<.<.<.<.<.<.<.<.<.<.<.<.<.<.<.<.<.<.<.<.<.<.<.<.<.<.<.<.<.<.<.<.",
"<.<.<.<.<.<.<.<.<.<.<.<.<.<.<.<.<.<.<.<.<.<.<.<.<.<.<.<.<.<.<.<.<.<.<.<.<.<.<.<.<.<.<.<.<.<.<.<.<.<.<.<.<.<.<.<.<.<.<.<.<.<.<.<.",
"<.<.<.<.<.<.<.<.<.<.<.<.<.<.<.<.<.<.<.<.<.<.<.<.<.<.<.<.<.<.<.<.<.<.<.<.<.<.<.<.<.<.<.<.<.<.<.<.<.<.<.<.<.<.<.<.<.<.<.<.<.<.<.<.",
"<.<.<.<.<.<.<.<.<.<.<.<.<.<.<.<.<.<.<.<.<.<.<.<.<.<.<.<.<.<.<.<.<.<.<.<.<.<.<.<.<.<.<.<.<.<.<.<.<.<.<.<.<.<.<.<.<.<.<.<.<.<.<.<.",
"<.<.<.<.<.<.<.<.<.<.<.<.<.<.<.<.<.<.<.<.<.<.<.<.<.<.<.<.<.<.<.<.<.<.<.<.<.<.<.<.<.<.<.<.<.<.<.<.<.<.<.<.<.<.<.<.<.<.<.<.<.<.<.<.",
"<.<.<.<.<.<.<.<.<.<.<.<.<.<.<.<.<.<.<.<.<.<.<.<.n v v <.<.<.<.<.<.<.<.<.<.<.<.<.<.<.<.<.<.<.<.<.<.<.<.<.<.<.<.<.<.<.<.<.<.<.<.<.",
"<.<.<.<.<.<.<.<.<.<.<.<.<.<.<.<.<.<.<.<.<.<.<.<.l v v <.<.<.<.<.<.<.<.<.<.<.<.<.<.<.<.<.<.<.<.<.<.<.<.<.<.<.<.<.<.<.<.<.<.<.<.<.",
"<.<.<.<.<.<.<.<.<.<.<.<.<.x u y <.<.<.<.' , , = y f f <.<.<.<.<.<.<.<.<.<.<.<.<.<.<.<.<.<.<.<.<.<.<.<.<.<.<.<.<.<.<.<.<.<.<.<.<.",
"<.<.<.<.<.<.<.<.<.<.<.<.<.8 9 8 *.*.*.' ' 3 3 = q f f ) 5 5 <.<.<.<.<.<.<.<.<.<.<.<.<.<.<.<.<.<.<.<.<.<.<.<.<.<.<.<.<.<.<.<.<.<.",
"<.<.<.<.<.<.<.<.<.<.<.<.<.9 9 8 *.*.*.*.3 6 9 = * w w ) 5 5 <.<.<.<.<.<.<.<.<.<.<.<.<.<.<.<.<.<.<.<.<.<.<.<.<.<.<.<.<.<.<.<.<.<.",
"<.<.<.<.<.<.<.<.<.<.<.<.<.9 9 9 *.=.=.*.3 9 9 = * w w ~ J ` <.<.<.<.<.<.<.<.<.<.<.<.<.<.<.<.<.<.<.<.<.<.<.<.<.<.<.<.<.<.<.<.<.<.",
"<.<.<.<.<.<.<.<.<.<.<.<.<.9 9 9 =.*.&.9 ;.;.:.= d A ^ M J ` <.<.<.<.<.<.<.<.<.<.<.<.<.<.<.<.<.<.<.<.<.<.<.<.<.<.<.<.<.<.<.<.<.<.",
"<.<.<.<.<.<.<.<.<.<.<.<.<.;.;.9 *.*.*.9 ;.;.:.- T R { - G ( <.<.<.<.<.<.<.<.<.<.<.<.<.<.<.<.<.<.<.<.<.<.<.<.<.<.<.<.<.<.<.<.<.<.",
"<.<.<.<.<.<.<.<.<.<.<.<.<.;.:.8 @.} 6 6 ,.    5 | - - - = # # # #.- <.<.<.<.<.<.<.<.<.<.<.<.<.<.<.<.<.<.<.<.<.<.<.<.<.<.<.<.<.<.",
"<.<.<.<.<.<.<.<.<.<.<.<.<.  ,.8 @...6 8 ,.    5 X.- - = = o # = #.1 1 7 1 1 5 5 %.Q ! ! D 5 1 <.<.<.<.<.<.<.<.<.<.<.<.<.<.<.<.<.",
"<.<.<.<.<.<.<.<.<.<.<.<.<.8 8 8 8 6 8 8 8 6 6 1 - 1 1 - # X # # 5 5 3 5 1 1 3 5 %.Q ! ! n 5 5 5 5 5 <.<.<.<.<.<.<.<.<.<.<.<.<.<.",
"<.<.<.<.<.<.<.<.<.<.<.<.<.8 8 6 6 9 8 6 8 8 6 1 - , 1 - # O # = 7 5 7 5 - 1 7 5 #.Q #.5 1 7 - e 5 5 <.<.<.<.<.<.<.<.<.<.<.<.<.<.",
"<.<.<.<.<.<.<.<.<.<.<.<.<.8 < >.>.>.>.>.3 8 6 1 1 5 1 = @ o # # 1 7 1 1 1 1 1 - #.%.) 5 1 e 1 5 5 5 <.<.<.<.<.<.<.<.<.<.<.<.<.<.",
"<.<.<.<.<.<.<.<.<.<.<.<.<.8 < >.>.>.>.>.< 6 6 1 1 5 1 - + X # # 1 7 1 1 1 - 1 - o.%.! 5 1 1 1 5 7 5 <.<.<.<.<.<.<.<.<.<.<.<.<.<.",
"<.<.<.<.<.<.<.<.<.<.<.<.<.6 >.  N N N   >.< 3 1 - 5 1 - + O # * 5 5 5 1 5 5 - 5 #.%.! e 1 5 1 5 5 5 <.<.<.<.<.<.<.<.<.<.<.<.<.<.",
"<.<.<.<.<.<.<.<.<.<.<.<.<.8 >.  N N N   >., < - - 5 1 - # @ # # 7 5 5 1 5 1 - 5 o.$.! 5 1 e - 5 5 5 <.<.<.<.<.<.<.<.<.<.<.<.<.<.",
"<.<.<.<.<.<.<.<.<.<.<.<.<.8 -.N j h h N >.< 3 5 5 5 1 = # f C F ! 5 1 1 7 5 e 5 - #.1 1 , 5 1 7 5 1 <.<.<.<.<.<.<.<.<.<.<.<.<.<.",
"<.<.<.<.<.<.<.<.<.<.<.<.<.<.<.<.<.3 7 9 E $ , $ $ # + X # n F J ) 1 1 7 1 , 5 e 3 ! 2 - 3 3 5 5 5 5 <.<.<.<.<.<.<.<.<.<.<.<.<.<.",
"<.<.<.<.<.<.<.<.<.<.<.<.<.<.<.<.<.: , $ + + X + X + O + e Z P E o.1 1 5 1 1 5 1 3 ( 3 2 3 5 5 5 5 5 <.<.<.<.<.<.<.<.<.<.<.<.<.<.",
"<.<.<.<.<.<.<.<.<.<.<.<.<.<.<.<.<., : : $ + + + + + + 7 g P Y / 7 5 6 5 1 1 5 5 o.Q o.) r 7 - 5 5 5 <.<.<.<.<.<.<.<.<.<.<.<.<.<.",
"<.<.<.<.<.<.<.<.<.<.<.<.<.<.<.<.<.: : : : + : + @ @ @ p x I W [ 5 5 7 5 1 1 e 5 o.Q o.` 7 5 - 5 7 5 <.<.<.<.<.<.<.<.<.<.<.<.<.<.",
"<.<.<.<.<.<.<.<.<.<.<.<.<.<.<.<.<., : $ : $ $ + : a z z M E L P - e - 5 1 n o.Q %.o.o.` 7 5 - 5 6 5 <.<.<.<.<.<.<.<.<.<.<.<.<.<.",
"<.<.<.<.<.<.<.<.<.<.<.<.<.<.<.<.<.3 , : : : : $ : z z c Z ' E P - 5 1 5 - D o.Q J o.) 5 5 3 2 3 5 - <.<.<.<.<.<.<.<.<.<.<.<.<.<.",
"<.<.<.<.<.<.<.<.<.<.<.<.<.<.<.<.<.< : , : : : $ , c c { ' { }  .5 1 1 , Q ) o.Q Q o.( 3 5 5 1 5 5 - <.<.<.<.<.<.<.<.<.<.<.<.<.<.",
"<.<.<.<.<.<.<.<.<.<.<.<.<.<.<.<.<., < , < : < : < W W T { } }  .5 1 - G Q Q Q Q Q ! ( k 5 5 5 5 5 - <.<.<.<.<.<.<.<.<.<.<.<.<.<.",
"<.<.<.<.<.<.<.<.<.<.<.<.<.<.<.<.<.3 < < < , < : < { ] S L  .' Y - 1 1 Q Q Q Q Q Q Q ;     . 1 5 5 - <.<.<.<.<.<.<.<.<.<.<.<.<.<.",
"<.<.<.<.<.<.<.<.<.<.<.<.<.<.<.<.<.4 < < , < .     . <.< 3 , 9 S 1 5 5 - $ $ $ $ 0 %   .   O , 5 5 5 <.<.<.<.<.<.<.<.<.<.<.<.<.<.",
"<.<.<.<.<.<.<.<.<.<.<.<.<.<.<.<.<.8 4 4 < S - O . . <.3 4 < < 6 - 5 5 1 > @ > > d *     O u o.5 5 5 <.<.<.<.<.<.<.<.<.<.<.<.<.<.",
"<.<.<.<.<.<.<.<.<.<.<.<.<.<.<.<.<.8 4 < 3 L y X X X <.9 6 4 M Y o.7 5 5 1 . . # <.. . X + i $.- - 1 <.<.<.<.<.<.<.<.<.<.<.<.<.<.",
"<.<.<.<.<.<.<.<.<.<.<.<.<.<.<.<.<.8 < < 4 L g X X O <.4 4 8 c Y o.5 5 5 5 o X * <.@ X X # g $.- - 5 <.<.<.<.<.<.<.<.<.<.<.<.<.<.",
"<.<.<.<.<.<.<.<.<.<.<.<.<.<.<.<.<.< , , 4 I k X O # <.6 , 8 B E $.- - 5 e . X # <.@ X @ $ k o.1 - 1 <.<.<.<.<.<.<.<.<.<.<.<.<.<.",
"<.<.<.<.<.<.<.<.<.<.<.<.<.<.<.<.<.4 < , 3 Y f O O # <.4 , 8 c E $.- 1 6 t . O * <.@ # $ $ k o.- - <.<.<.<.<.<.<.<.<.<.<.<.<.<.<.",
"<.<.<.<.<.<.<.<.<.<.<.<.<.<.<.<.<.8 4 6 6 L k + + # <.4 < 4 c E o.- - 5 p @ @ * <.+ @ $ = l _ - 7 <.<.<.<.<.<.<.<.<.<.<.<.<.<.<.",
"<.<.<.<.<.<.<.<.<.<.<.<.<.<.<.<.<.< 3 3 6 I k O O # <.6 4 6 c E ` - 2 5 # X @ # <.@ $ # = Z J 3 6 <.<.<.<.<.<.<.<.<.<.<.<.<.<.<.",
"<.<.<.<.<.<.<.<.<.<.<.<.<.<.<.<.<., < < 4 ..s # # = <.6 8 4 c W o.- , 5 # O O # <.$ $ : : $ 2 2 5 <.<.<.<.<.<.<.<.<.<.<.<.<.<.<.",
"<.<.<.<.<.<.<.<.<.<.<.<.<.<.<.<.<., < 8 8 O.g # # # <.< , 4 S } Q 5 7 5 $ X O $ <.# $ $ , = - - - <.<.<.<.<.<.<.<.<.<.<.<.<.<.<.",
"<.<.<.<.<.<.<.<.<.<.<.<.<.<.<.<.<., , 4 8 4 + # # # <.< < 8 S +.J 5 5 5 $ + & = <.$ $ = $ , - 5 - <.<.<.<.<.<.<.<.<.<.<.<.<.<.<.",
"<.<.<.<.<.<.<.<.<.<.<.<.<.<.<.<.<., < 4 4 6 & # # = <.< 6 6 8 4 - , 5 - # # O # <.$ # = = , , 7 - <.<.<.<.<.<.<.<.<.<.<.<.<.<.<.",
"<.<.<.<.<.<.<.<.<.<.<.<.<.<.<.<.<., , 3 8 4 # # O = = < 6 6 8 4 - 2 - 3 # # # # <.= $ $ = , - 5 - <.<.<.<.<.<.<.<.<.<.<.<.<.<.<.",
"<.<.<.<.<.<.<.<.<.<.<.<.<.<.<.<.<.- , 3 4 9 # = * = = 3 4 8 4 8 2 5 - 5 # @ # & <.= = $ : , 2 5 - <.<.<.<.<.<.<.<.<.<.<.<.<.<.<.",
"<.<.<.<.<.<.<.<.<.<.<.<.<.<.<.<.<.<.4 3 4 8 @ = # = * 5 3 6 6 9 , 3 2 5 o o o O <.$ $ = = = 1 - - <.<.<.<.<.<.<.<.<.<.<.<.<.<.<.",
"<.<.<.<.<.<.<.<.<.<.<.<.<.<.<.<.<.<., < 6 6 # = # = # , 4 6 4 9 - 3 - 3 X <.<.<.<.O O # = = - = & <.<.<.<.<.<.<.<.<.<.<.<.<.<.<.",
"<.<.<.<.<.<.<.<.<.<.<.<.<.<.<.<.<.<., 3 < , # # # # # 1 , 6 4 9 2 7 2 3 <.<.<.<.<.O & O & O & & & <.<.<.<.<.<.<.<.<.<.<.<.<.<.<.",
"<.<.<.<.<.<.<.<.<.<.<.<.<.<.<.<.<.<.* * 1 , # & O O O < 3 4 4 4 - 6 2 - <.<.<.<.<.<.<.<.<.<.<.<.<.<.<.<.<.<.<.<.<.<.<.<.<.<.<.<.",
"<.<.<.<.<.<.<.<.<.<.<.<.<.<.<.<.<.<.& * * * o o o O <.3 3 4 3 , - - - - <.<.<.<.<.<.<.<.<.<.<.<.<.<.<.<.<.<.<.<.<.<.<.<.<.<.<.<.",
"<.<.<.<.<.<.<.<.<.<.<.<.<.<.<.<.<.<.<.<.<.<.<.<.<.<.<.* * 1 , 3 3 2 & & <.<.<.<.<.<.<.<.<.<.<.<.<.<.<.<.<.<.<.<.<.<.<.<.<.<.<.<.",
"<.<.<.<.<.<.<.<.<.<.<.<.<.<.<.<.<.<.<.<.<.<.<.<.<.<.<.* * * * * & & & & <.<.<.<.<.<.<.<.<.<.<.<.<.<.<.<.<.<.<.<.<.<.<.<.<.<.<.<.",
"<.<.<.<.<.<.<.<.<.<.<.<.<.<.<.<.<.<.<.<.<.<.<.<.<.<.<.<.<.<.* * & <.<.<.<.<.<.<.<.<.<.<.<.<.<.<.<.<.<.<.<.<.<.<.<.<.<.<.<.<.<.<.",
"<.<.<.<.<.<.<.<.<.<.<.<.<.<.<.<.<.<.<.<.<.<.<.<.<.<.<.<.<.<.<.<.<.<.<.<.<.<.<.<.<.<.<.<.<.<.<.<.<.<.<.<.<.<.<.<.<.<.<.<.<.<.<.<."
};
