/* XPM */
static char *_38515c7b6a74202f4c5a1b206588774jxf8xss1Ly1ObzvO[] = {
/* columns rows colors chars-per-pixel */
"64 64 156 2 ",
"   c #3F2D0E",
".  c #3F2E13",
"X  c #3E2E1E",
"o  c #3F3014",
"O  c #3F321E",
"+  c #3E3321",
"@  c #402D0F",
"#  c #412F14",
"$  c #433215",
"%  c #4B3514",
"&  c #4D3915",
"*  c #43331C",
"=  c #49361C",
"-  c #46391F",
";  c #4C3A1D",
":  c #523914",
">  c #513E1E",
",  c #433522",
"<  c #493721",
"1  c #453924",
"2  c #4C3C23",
"3  c #473C2A",
"4  c #4A3D2A",
"5  c #513E23",
"6  c #4F4126",
"7  c #4F402B",
"8  c #524226",
"9  c #5A4625",
"0  c #5C4826",
"q  c #53432A",
"w  c #594628",
"e  c #5B4B2F",
"r  c #5C4D32",
"t  c #5F4F38",
"y  c #614E2E",
"u  c #65512E",
"i  c #6B542E",
"p  c #624F33",
"a  c #655234",
"s  c #6A5534",
"d  c #6C5936",
"f  c #655439",
"g  c #6B5639",
"h  c #6D5A3A",
"j  c #725B35",
"k  c #785F37",
"l  c #725E3B",
"z  c #795F3A",
"x  c #776037",
"c  c #786137",
"v  c #75603D",
"b  c #79623B",
"n  c #6C5E44",
"m  c #735F41",
"M  c #756242",
"N  c #7D6544",
"B  c #7E6845",
"V  c #7F6848",
"C  c #80673F",
"Z  c #82673F",
"A  c #876A3E",
"S  c #816742",
"D  c #836742",
"F  c #816744",
"G  c #826742",
"H  c #826941",
"J  c #806842",
"K  c #826843",
"L  c #836A42",
"P  c #846840",
"I  c #846841",
"U  c #856941",
"Y  c #876A40",
"T  c #866B40",
"R  c #856942",
"E  c #846843",
"W  c #876943",
"Q  c #876A42",
"!  c #876B43",
"~  c #806844",
"^  c #836944",
"/  c #826845",
"(  c #826A44",
")  c #806846",
"_  c #836946",
"`  c #846943",
"'  c #886C44",
"]  c #886B42",
"[  c #846A49",
"{  c #957C53",
"}  c #977E55",
"|  c #967E54",
" . c #987F56",
".. c #9B7F57",
"X. c #997E56",
"o. c #977E59",
"O. c #9B7F58",
"+. c #978056",
"@. c #9D8152",
"#. c #9E8253",
"$. c #9F8353",
"%. c #9E8252",
"&. c #9B8357",
"*. c #9D8054",
"=. c #9E8155",
"-. c #9D8255",
";. c #9E8354",
":. c #9F8354",
">. c #9C8156",
",. c #9D8257",
"<. c #9E8356",
"1. c #9F8555",
"2. c #9D8255",
"3. c #9E8358",
"4. c #9D8359",
"5. c #A08250",
"6. c #A08153",
"7. c #A18253",
"8. c #A38553",
"9. c #A68750",
"0. c #A78651",
"q. c #A28354",
"w. c #A08454",
"e. c #A18555",
"r. c #A38455",
"t. c #A18556",
"y. c #A28657",
"u. c #A38757",
"i. c #A58755",
"p. c #A78754",
"a. c #A58657",
"s. c #A28555",
"d. c #A88751",
"f. c #AA8751",
"g. c #A88752",
"h. c #A78851",
"j. c #A78852",
"k. c #A78953",
"l. c #A78955",
"z. c #A78953",
"x. c #A88952",
"c. c #A98853",
"v. c #A88953",
"b. c #A88855",
"n. c #A98A54",
"m. c #A98B55",
"M. c #A98956",
"N. c #A88857",
"B. c #A98B57",
"V. c #A88854",
"C. c #A38758",
"Z. c #A58658",
"A. c #A38658",
"S. c #A98958",
"D. c #A88A58",
"F. c #A98A58",
/* pixels */
"4 4 4 4 t a a a a a p s 5.c.c.$.% @ # # g l s j 0.f.b.5.% # . $ g h d d h d d d d g g j S D J F j d d j D D / J j d g j ..c.0.f.",
"4 4 4 4 t a a y a t p s 5.d.c.$.% # # % g h j j ..f.m.6.% # # $ d d h h d h d d d l j l D D D D l s g h D D / V d h j l f.f.d.0.",
"4 4 4 4 t a a a a a y s t.m.m.1.%   # $ s s i j 6.d.b.$.% @ # $ f d s h d h h d h d d l b A D D l g h l D L / F l g h j q.b.d.d.",
"4 4 4 q p a a p a a p i } ;.;.{ % # # % j j k k 9.d.f...: $ $ % d k j j d s g g g h d j L ] L L s s g d F L / N d g g j 6.b.d.d.",
"4 4 4 4 n t f p l h v h & % % % @ $ # &  .Z.t.t.p.k.c.p.d s s j &.C.p. .& $ % % g d d j ;.p.Z...0 8 8 w N _ L D w 8 8 0 6.c.f.f.",
"4 4 4 4 t p p a n l v h $ @ @ @ o . # % ;.m.b.d.9.9.d.t.j s s j C.l.S.6.% # # # g d d j 6.b.S.t.0 8 8 q V J J V q 8 8 9 t.c.f.f.",
"4 7 3 7 t p p f v h v h $ $ $ $ $ $ . % $.9.d.d.m.b.b.t.j s s j t.k.M...& # # * g d d j 1.l.b.4.9 4 q w N J L / w q 8 w $.c.d.d.",
"4 3 3 4 t f p f h M l h $ . o $ $ $ # & ;.m.9.9.5.$.....j s s j t.k.c...% # # # g d d j ;.C.Z...w 5 q w J ] ] / w 8 8 9 $.c.d.d.",
"+ , * , t f p p f t a r * $ o $ g l h j t.m.k.5.: % % & s d i j t.k.m...% # # * d d j j L ] ] F q q 8 9 ;.Z.Z.;.9 8 7 9 1.c.k.k.",
"X X X * p p p f y a a r $ o o $ l l l k t.k.k.$.% @ @ $ u d d j 8.k.d.@.% # # # s h g h D Z D N q 7 8 9 ;.S.m.6.9 8 8 9 ;.k.9.k.",
"* X , * t p f p t a a r * o $ $ h l k c 8.k.k.1.% @ $ $ f d s d 8.c.m...% # # $ s j d j D D A N 9 8 8 0 6.m.d.;.9 8 8 9 ;.b.9.f.",
"- - * , p p p f a t f t * o $ $ l v j c 8.k.c.1.& @ $ $ s s i j 1.c.d.@.% # # $ g h d h L A L N 9 6 5 9 $.l.m.6.9 8 2 9 ..p.9.9.",
"h h h n 2 4 5 5 t p p t $ $ . $ N / N D 8.c.c...% $ $ $ s s s j t.k.l.$.% # . $ s d i x ;.1.Z.&.& o $ & $.9.k.;.% # # % D ] ] A ",
"l l m h 5 3 3 4 t f p p $ $ $ $ N _ L ] 8.k.c.;.% @ $ $ s f s j t.9.p.@.% # $ $ g d j j 8.k.9.$.& . # % $.c.d.$.% # # # b D D A ",
"l l l h 5 4 4 4 p f f p $ # # $ N F D ] 9.k.l.;.% @ $ $ s s i j t.p.S.@.% . # $ f d d j 8.c.k.$.% . # % $.c.d.$.% @ # % N _ D D ",
"l l l n 2 3 3 4 p f s p = $ $ & D _ D L ;.8.p.$.& $ $ % s d s j 4.p.C.&.%   # $ s h s j 8.k.c.1.& . $ % $.c.d.5.: @ # $ N / E E ",
"l l v h 6 + 6 6 h m h l h h l l F G E E W W A D l h h h d g s d b z b b % # # $ f j d j 5.d.m.;.; * * ; ;.l.b...% @ # # S W W W ",
"h v n h 6 6 + 6 n l l l l l l z F D D W D D D D M l l m d g d d M z m l $ # # $ s d d j p.b.p.4.; * , = ;.p.d.5.% $ # % m W E E ",
"v l l h 6 1 3 6 n l l l l l l l G I G D [ / L E l l v v d s s d b m b l % . # # s h d j 6.m.S.4.< * + ; 4.p.d.5.% # # % N ) _ _ ",
"l l l h 6 1 1 6 h l l l l n n l E W W W D F F N v h l h d g s d M z M l * # # % s h d j ;.Z.Z.&.; * + = &.Z.p...% # # $ m F F F ",
"l v v h f t f f m l l l < 4 < 5 ..Z.Z.;.s i s a d h d d g d s d b M b m % . # # s h d j T T T N - * , ; N L ] S * * * * g h j h ",
"l l m h f f f f m l l g < < < < ;.S.b.$.i u s y h d h h s d d d m z m l * # # * s d d h N J / N , * , < F _ D N 2 * , , g l j j ",
"l l l l a a a a l m m h 2 < < 5 4.b.p.t.i i y s d s i s d g d d m z z l = # o % s h d d V / [ V = , * - N _ W N = , , , g h g g ",
"l l v l d f d f g m m n < , , 2 4.b.d.$.i u u u j k x j g f f g b z S z $ o $ $ d h d l N V V M < * * = N E E ) < * * , g h h g ",
"l l l l / / V B q q q q , 4 , 5 ;.b.b.6.i i u i @.t.e.&.2 - * : ..p.C.O.% # # $ N F N N p y y r * $ # # G [ [ m = * , , n g g h ",
"l l l v _ L ( B w 7 q 7 , 3 , 5 4.b.m.6.i y u i 5.k.S.4.= * * ; 4.D.S.;.% # # % N E / F y e r e $ # # % F W [ F , , , , p g h h ",
"j l l x J J / N q q q q , , , 2 ;.b.l.5.i u p i 6.b.m.;.2 * , ; ;.p.m...% # # % N L / N y e y e $ # # # F G / F < , , , g h h h ",
"l l l l L T ' / w 7 q 7 , 4 , 5  .b.k.t.i y y i 6.d.b...= , * = ;.p.p.;.% $ @ $ N L L D e e r r = $ # = F / / N < , , , g h h h ",
"l l d c 1.u.C. .; o * * , 1 , 5 ;.b.b.6.: $ # : 6.m.b...; * , 2 6.m.c.5.$ $ @ % N L L N q 8 8 8 g g g s F L E ) , , + , f h g l ",
"l v l c 1.m.l.1.% . # * , 1 , 2 O.b.b.5.% # # % 6.b.b.4.; , , ; 4.c.c...% $ # $ N L D D 8 5 4 8 g j d d D L _ ) ; * , 1 f g d d ",
"l l x c 1.k.k.-.% o o o , 1 , 5 ;.b.b...% @ # % ;.S.S.4.; O * = t.S.S...% # # % N J L N 9 8 8 q g g d j J J [ N = , * * g g d d ",
"l l l x u.h.m.;.$ $ O O 1 1 , 2 O.b.m.;.%   # =  .C.3.o.; * * ; o.A.A.O.= . . % D W ] J 8 2 5 5 g g d d B N V N - * * * g g j j ",
"l l l k q.b.b.;.; - 1 + 1 , , 5 &.l.m.1.; - < 2 s j s s * # # = a j s s < < < 5 O.p.A. .& # $ * d h h l l j l h o o o * N / N D ",
"k l l k q.d.b...; + 1 3 1 1 1 2 &.l.l.-.> - 2 < p p i p * $ # # p a s p 2 4 , 5 4.S.b.;.= . # $ h h l h l j l h - o $ $ N / E _ ",
"l l l k t.c.b.;.2 1 , + , , 1 ; 4.S.m.-.> * - ; p a i p # # # * p s a p 4 , 4 5 4.b.b...% . # $ h h l h h l j h % o $ % N _ E E ",
"l l l c 8.c.b.&.2 O 1 1 1 4 4 q &.6.1.+.9 > > 8 p a a y = * # % a a f p < < < 5 6.b.S.;.% $ * * f d h d x c b l $ o o * N _ E E ",
"l l l k t.k.m.;.; - + 1 n n M n l j j k &.&.3.+.8 ; < 2 p p p a y s s a * * # * ..b.b.4.w 5 4 5 O o o & @.1.e.&.2 * * = N F E E ",
"l l k j 1.l.l.;.> 1 1 1 M M M M g d i j t.S.D.3.; - < 2 p s s a s p s p # # # & ;.p.m.;.w 5 q 5 * o   % 1.m.l.3.< * , < N E E E ",
"l l l k e.m.m.-.2 + + 2 M M M M h d d j t.b.l.$.> 1 2 2 p s p s a s s p # # # % $.p.b.;.w 8 5 4 o o o % 1.k.k.-.= * , , N J D D ",
"m m g k 1.e.C.&.> 1 + 1 M M M M h h i j t.p.m.1.> 1 < < p a s u y p p p * % # & $.b.b.$.9 2 2 5 - o o % %.u.k.1.< , , < D ] A ] ",
"4 4 4 9 N L ] D 6 + 1 6 n M M v h d d x 5.k.k.1.% o * * a a s p % $ # = p p p i ..f.f.p.% # # * $ @ @ % 6.d.b.O.5 2 4 5 O.N.p...",
"4 4 4 5 N / _ N - 1 1 1 M M M M h d i j 5.k.9.1.% o o $ a s s p # # # $ p f s i ..f.f...% # # # $ $ @ % ;.b.b.t.5 < < 5 O.S.f.f.",
"4 4 4 5 N _ D N 1 + + 6 M M M M h d d j 1.c.c.1.% o $ $ y u s y $ # $ $ p s s i 8.d.f.q.% # * # $ $ # % ;.d.b.;.5 2 4 5 t.b.f.f.",
"4 4 3 4 ) W W F 6 + 3 + m M M M h h d k 8.9.c.$.% o $ $ i s s i % # . * p s s i 6.b.S.6.% # * # . . . % $.m.b.;.5 2 < 5 ;.m.c.d.",
"4 4 1 8 &.Z.Z.&.2 O + 6 M M M M M v v b t.9.m.;.> ; - > &.t.3.+.% # # = p a p i t.c.b.5.& # * # $ o # % $.k.c.$.% # # % ..b.d.d.",
"3 4 4 8 4.S.S.4.2 O 6 + M M M b M b v b t.l.Z.;.> , - > 3.S.D.-.% # # # p a s i 8.c.b.6.% . # * . $ # % $.l.c.$.% # # % 6.m.d.d.",
"4 4 4 8 4.b.Z.4.; 1 1 2 n N M N v v v b t.d.b.;.> - ; 5 4.S.S.;.% # # * p a p i 6.d.m...% # # # # #   % ;.l.m.6.%   @ : ..m.d.d.",
"1 4 1 5 3.m.b...; * * - M M M M n v v b t.m.b.4.> - - >  .t.t. .% # # * p a p i t.c.b.;.* # * # # $ . % { C.C.+.% o @ % ..b.d.d.",
", + * - &.l.b.;.% . # = m M M M v v v b e.m.b.6.% # * $ u i j i * # # % p s s i 6.m.b.;.< * 1 * o * . * h c c l $ @ $ % 5.c.9.k.",
"+ + * = 4.p.b.;.% # # # m N M N M M v b e.c.b...% # # $ u a u p * # # # p p i i t.d.b.4.< * , , * o . $ h h h d $ $ @ % 5.9.k.9.",
"O + X = 4.m.S.6.$ . # * M M M M v v M b e.l.m.;.= # # # a a s u # @ # # p s i s t.m.S.3.2 * , * o o . o d h h g @     % 6.m.c.m.",
"+ + o ; } C.C.O.& $ # = M M M M M M l k 1.p.Z. .% # # % a a a p : : = % p s a i 4.6.1.} ; * * - * $ $ = l x x l & % % : { ;.$.5.",
"3 4 2 2 l b l z p p p a M M M M h d d j _ L ] D 9 2 8 8 f a s i X.......j u a s k k l h $ $ # * f h h h &.C.t.t.$.$.t.| : % % % ",
"3 4 3 8 h l l h a a p s M M M M l h d j D D D N q q q q f a s i p.p.c.p.i a i a h h h d * # # $ h l l x 1.D.p.p.k.b.m.;.% # # # ",
"3 4 4 2 n M l m a p y p M M M M g d j h D E L N e q 8 q p a s i ..f.c.O.j y a s h h l d # # # $ h n h x C.l.l.l.k.k.c.8.% @ # % ",
"3 3 2 4 h l l l s s s s m m v M l g g d F E J N q q q q p a y i 8.c.f.p.i u a g x x c h # * # * h h h x 1.C.t.p.$.@.1.| : $ $ # ",
"+ + * , h v l l ;.6.Z.O.& % # & s d d h B L J V y 4 q q # % @ : ..f.b.5.j a i j 4.1.C.o.2 * * < g d g j L L L D % % % % i a s s ",
"+ + , * h l k z t.m.M.6.% @ # $ d h h d B B / B 5 e 4 q $ # @ % 5.f.b.6.i u p s 6.l.D.4.2 * * = g g d j D D F N % @ # $ s g s s ",
"+ + O * h n l k t.p.b.6.: # # * f h d l L J ( V q 5 q 4 # $ # : q.b.p.t.i i i i 6.m.l.4.= * , , g g d h D _ F N $ $ @ # s s s s ",
"+ + , - h v l b 6.Z.q...% # # # d d d h B L / B y q 5 5 * # # %  .p.6.4.s i s s &.1.;. .; * * * g g d d D _ D N & $ $ & s d d s ",
"t t t p m l l v D A L D % # # % f s f s s s s d g g a a * # # * s i i s s s p i i i j i * o # * s g d h j g j g a s a s N L D D ",
"f f p a l l l l D A L b # # # * u d u d i s s f s p f a # * # * p i p i p s p s a i a y * # # * a g d d s d g d s d s d J L D ] ",
"f f p a l l l l J Z D N % # # $ a f d a s u s u s s g a # # # * p s p i p s s p s p a a $ . # * a j g h g h d d s j s d D D W W ",
"f p p a l l l b J J F N % # # $ a d a d a d a s a s g a # * # * p s s p s i p s a a s a * o # # s h d d d d g g s s s j L W W D "
};
