/* XPM */
static char *_243f88c36ee4a04f49bc79f7b8653115zIcpoqtiuMvhq3k[] = {
/* columns rows colors chars-per-pixel */
"64 64 256 2 ",
"   c black",
".  c #010101",
"X  c #020202",
"o  c gray1",
"O  c #040404",
"+  c gray2",
"@  c #060606",
"#  c #070707",
"$  c gray3",
"%  c #090909",
"&  c gray4",
"*  c #0B0B0B",
"=  c #0C0C0C",
"-  c gray5",
";  c #0E0E0E",
":  c gray6",
">  c #101010",
",  c #111111",
"<  c gray7",
"1  c #131313",
"2  c gray8",
"3  c #151515",
"4  c #161616",
"5  c gray9",
"6  c #181818",
"7  c #191919",
"8  c gray10",
"9  c #1B1B1B",
"0  c gray11",
"q  c #1D1D1D",
"w  c #1E1E1E",
"e  c gray12",
"r  c #202020",
"t  c gray13",
"y  c #222222",
"u  c #232323",
"i  c gray14",
"p  c #252525",
"a  c gray15",
"s  c #272727",
"d  c #282828",
"f  c gray16",
"g  c #2A2A2A",
"h  c gray17",
"j  c #2C2C2C",
"k  c #2D2D2D",
"l  c gray18",
"z  c #2F2F2F",
"x  c gray19",
"c  c #313131",
"v  c #323232",
"b  c gray20",
"n  c #343434",
"m  c #353535",
"M  c gray21",
"N  c #373737",
"B  c gray22",
"V  c #393939",
"C  c #3A3A3A",
"Z  c gray23",
"A  c #3C3C3C",
"S  c gray24",
"D  c #3E3E3E",
"F  c #3F3F3F",
"G  c gray25",
"H  c #414141",
"J  c gray26",
"K  c #434343",
"L  c #444444",
"P  c gray27",
"I  c #464646",
"U  c gray28",
"Y  c #484848",
"T  c #494949",
"R  c gray29",
"E  c #4B4B4B",
"W  c #4C4C4C",
"Q  c gray30",
"!  c #4E4E4E",
"~  c gray31",
"^  c #505050",
"/  c #515151",
"(  c gray32",
")  c #535353",
"_  c gray33",
"`  c #555555",
"'  c #565656",
"]  c gray34",
"[  c #585858",
"{  c gray35",
"}  c #5A5A5A",
"|  c #5B5B5B",
" . c gray36",
".. c #5D5D5D",
"X. c gray37",
"o. c #5F5F5F",
"O. c #606060",
"+. c gray38",
"@. c #626262",
"#. c gray39",
"$. c #646464",
"%. c #656565",
"&. c gray40",
"*. c #676767",
"=. c #686868",
"-. c DimGray",
";. c #6A6A6A",
":. c gray42",
">. c #6C6C6C",
",. c #6D6D6D",
"<. c gray43",
"1. c #6F6F6F",
"2. c gray44",
"3. c #717171",
"4. c #727272",
"5. c gray45",
"6. c #747474",
"7. c gray46",
"8. c #767676",
"9. c #777777",
"0. c gray47",
"q. c #797979",
"w. c gray48",
"e. c #7B7B7B",
"r. c #7C7C7C",
"t. c gray49",
"y. c #7E7E7E",
"u. c gray50",
"i. c #808080",
"p. c #818181",
"a. c gray51",
"s. c #838383",
"d. c #848484",
"f. c gray52",
"g. c #868686",
"h. c gray53",
"j. c #888888",
"k. c #898989",
"l. c gray54",
"z. c #8B8B8B",
"x. c gray55",
"c. c #8D8D8D",
"v. c #8E8E8E",
"b. c gray56",
"n. c #909090",
"m. c gray57",
"M. c #929292",
"N. c #939393",
"B. c gray58",
"V. c #959595",
"C. c gray59",
"Z. c #979797",
"A. c #989898",
"S. c gray60",
"D. c #9A9A9A",
"F. c #9B9B9B",
"G. c gray61",
"H. c #9D9D9D",
"J. c gray62",
"K. c #9F9F9F",
"L. c #A0A0A0",
"P. c gray63",
"I. c #A2A2A2",
"U. c gray64",
"Y. c #A4A4A4",
"T. c #A5A5A5",
"R. c gray65",
"E. c #A7A7A7",
"W. c gray66",
"Q. c #A9A9A9",
"!. c #AAAAAA",
"~. c gray67",
"^. c #ACACAC",
"/. c gray68",
"(. c #AEAEAE",
"). c #AFAFAF",
"_. c gray69",
"`. c #B1B1B1",
"'. c #B2B2B2",
"]. c gray70",
"[. c #B4B4B4",
"{. c gray71",
"}. c #B6B6B6",
"|. c #B7B7B7",
" X c gray72",
".X c #B9B9B9",
"XX c gray73",
"oX c #BBBBBB",
"OX c #BCBCBC",
"+X c gray74",
"@X c gray",
"#X c gray75",
"$X c #C0C0C0",
"%X c #C1C1C1",
"&X c gray76",
"*X c #C3C3C3",
"=X c gray77",
"-X c #C5C5C5",
";X c #C6C6C6",
":X c gray78",
">X c #C8C8C8",
",X c gray79",
"<X c #CACACA",
"1X c #CBCBCB",
"2X c gray80",
"3X c #CDCDCD",
"4X c #CECECE",
"5X c gray81",
"6X c #D0D0D0",
"7X c gray82",
"8X c #D2D2D2",
"9X c LightGray",
"0X c gray83",
"qX c #D5D5D5",
"wX c gray84",
"eX c #D7D7D7",
"rX c #D8D8D8",
"tX c gray85",
"yX c #DADADA",
"uX c gray86",
"iX c gainsboro",
"pX c #DDDDDD",
"aX c gray87",
"sX c #DFDFDF",
"dX c gray88",
"fX c #E1E1E1",
"gX c #E2E2E2",
"hX c gray89",
"jX c #E4E4E4",
"kX c gray90",
"lX c #E6E6E6",
"zX c #E7E7E7",
"xX c gray91",
"cX c #E9E9E9",
"vX c #EAEAEA",
"bX c gray92",
"nX c #ECECEC",
"mX c gray93",
"MX c #EEEEEE",
"NX c #EFEFEF",
"BX c gray94",
"VX c #F1F1F1",
"CX c gray95",
"ZX c #F3F3F3",
"AX c #F4F4F4",
"SX c gray96",
"DX c #F6F6F6",
"FX c gray97",
"GX c #F8F8F8",
"HX c #F9F9F9",
"JX c gray98",
"KX c #FBFBFB",
"LX c gray99",
"PX c #FDFDFD",
"IX c #FEFEFE",
"UX c white",
/* pixels */
"u.u.u.t.7.7.6.6.6.6.6.6.6.6.6.6.6.6.6.8.y.y.u.a.b.b.b.b.b.b.b.k.:.=.=.<.z.v.b.c.p.u.u.t.7.6.6.6.6.6.6.5.6.6.6.6.6.6.6.7.y.u.u.u.",
"u.u.u.t.7.6.6.6.6.6.6.6.6.6.6.6.6.6.6.8.y.u.u.a.v.b.b.b.b.b.b.k.:.=.=.<.z.b.b.x.p.i.u.t.7.6.6.6.6.6.6.7.6.6.6.6.6.6.6.7.y.u.u.u.",
"u.u.u.t.7.6.6.6.6.6.6.6.6.6.6.6.6.7.6.8.y.u.u.a.v.b.b.b.b.b.n.k.:.=.=.<.z.b.b.c.p.u.u.t.7.6.6.6.6.6.6.6.5.6.6.5.6.6.6.7.y.u.u.u.",
"u.u.u.t.9.7.7.8.9.9.9.9.9.9.9.9.9.9.8.q.i.i.p.s.z.z.x.x.x.x.x.h.>.-.-.1.x.b.n.c.s.p.p.u.0.9.9.9.5.5.5.5.7.7.7.7.7.7.7.8.t.y.y.y.",
"u.u.u.u.y.y.y.i.z.x.x.x.x.x.x.x.x.x.x.x.x.c.c.k.w.9.9.9.9.9.9.8.5.4.4.9.x.b.b.b.c.c.c.c.x.x.x.h.,.-.-.>.e.y.y.y.y.y.y.t.8.6.7.6.",
"u.u.u.u.u.u.u.p.v.v.b.b.b.b.b.b.b.b.b.b.b.b.b.z.9.6.6.6.6.6.5.6.6.6.6.0.c.b.b.b.b.b.b.b.b.b.n.l.>.=.=.:.t.u.u.u.u.u.u.y.7.6.6.6.",
"u.u.u.u.u.u.u.a.v.b.b.n.b.b.b.b.b.b.b.b.b.b.b.z.8.6.6.6.6.6.6.6.6.6.6.0.c.b.b.b.b.b.b.b.b.b.b.l.>.=.=.;.r.u.u.u.u.u.u.y.8.6.7.6.",
"u.u.u.y.t.r.r.u.z.z.x.x.x.x.x.x.z.z.z.z.x.x.x.h.8.6.6.6.6.6.6.6.9.9.9.w.z.x.x.x.c.c.c.c.c.c.v.j.<.;.;.<.y.p.p.p.u.u.u.y.8.7.7.7.",
"u.u.u.e.>.:.:.,.9.0.9.9.9.9.0.8.<.,.,.1.9.0.0.9.6.6.5.6.6.6.6.0.k.x.x.k.q.9.9.q.i.p.p.p.p.p.p.i.t.r.r.y.l.c.c.z.p.u.u.u.y.y.y.y.",
"i.u.u.e.-.=.=.;.5.6.6.6.6.6.6.4.-.=.=.;.5.6.6.6.6.7.6.6.6.6.6.0.c.b.b.z.8.6.6.7.y.u.u.u.u.u.u.u.u.u.u.p.c.b.b.c.p.u.u.u.u.u.u.u.",
"u.u.u.e.-.=.=.;.5.6.6.6.6.6.6.4.-.=.=.:.5.6.6.5.6.6.5.6.6.6.6.0.c.b.b.l.8.5.6.8.y.u.u.u.u.u.u.u.u.u.u.a.c.b.b.c.i.u.y.u.u.u.u.u.",
"u.u.u.e.,.>.>.<.7.7.7.7.7.7.7.5.:.;.;.>.4.5.5.5.7.7.7.7.9.9.8.w.z.c.c.l.9.7.7.8.t.y.y.y.y.y.y.y.y.y.y.u.z.x.x.l.u.y.y.y.u.u.u.u.",
"y.u.u.p.l.l.l.j.y.y.t.y.y.y.y.t.t.r.r.q.:.;.-.,.r.y.t.p.l.z.x.l.a.p.a.p.y.y.y.r.8.7.7.7.7.7.7.7.7.7.7.8.9.0.0.9.7.7.7.9.t.u.u.u.",
"u.u.u.a.v.b.b.x.i.u.u.u.u.y.u.u.u.u.i.e.;.=.=.,.r.u.u.a.v.b.b.c.i.u.u.u.u.u.u.t.7.6.6.6.6.6.6.6.6.6.6.6.6.6.6.6.6.6.6.7.y.u.u.u.",
"u.u.u.a.v.b.b.x.i.u.u.u.u.u.u.i.u.u.u.e.;.=.=.>.t.u.u.a.v.b.b.c.p.u.u.u.u.u.u.t.7.6.6.6.6.6.6.6.6.6.6.6.6.6.6.6.6.6.6.7.y.u.u.u.",
"u.u.u.a.v.b.b.x.a.p.p.i.y.y.y.y.y.y.y.w.:.-.-.<.r.y.y.i.z.x.x.l.u.y.y.y.y.y.y.t.0.9.9.9.9.9.9.9.9.9.9.9.9.9.9.9.9.9.9.0.r.t.t.t.",
"u.u.u.a.v.b.b.b.c.c.c.l.9.7.8.8.8.8.8.7.5.3.4.5.7.8.7.8.0.0.0.9.8.7.8.8.8.8.7.q.k.z.z.z.x.z.z.z.z.z.z.z.z.z.z.z.z.z.x.h.1.:.:.:.",
"u.u.u.a.v.b.b.b.b.b.b.l.8.6.6.6.6.6.6.6.6.5.6.7.6.6.6.6.6.6.6.6.5.6.6.6.7.6.6.0.c.b.b.b.b.b.b.b.b.b.b.b.b.b.b.n.b.n.n.l.>.*.=.=.",
"u.u.u.a.v.b.b.b.b.b.b.l.8.6.6.6.6.6.6.6.6.6.6.6.6.6.6.6.6.6.6.6.5.6.6.5.6.6.6.0.c.b.b.b.b.b.b.b.b.b.b.b.b.b.b.b.b.b.n.l.>.=.=.=.",
"y.y.y.p.z.x.c.c.x.c.v.k.9.7.8.7.7.7.7.7.6.6.6.6.6.6.6.6.6.6.6.6.7.7.7.7.5.5.5.8.z.c.c.c.c.c.c.x.x.x.x.x.x.x.x.x.l.z.z.h.<.;.;.;.",
"8.8.8.8.0.0.0.w.p.p.p.p.y.t.t.t.t.t.y.r.7.6.6.6.6.7.6.6.6.6.6.6.t.t.y.w.>.;.-.<.u.p.p.p.p.p.p.i.q.0.0.0.0.0.0.9.1.,.,.1.w.r.e.r.",
"6.6.6.6.6.6.6.8.y.u.u.u.u.u.u.u.u.u.u.t.7.6.6.5.6.6.7.6.6.6.6.8.y.u.u.r.;.*.*.:.r.u.u.u.u.u.u.t.7.6.6.6.6.6.6.4.-.=.*.:.r.u.u.u.",
"6.6.6.6.6.6.6.8.y.u.y.u.u.u.u.u.u.u.u.t.7.6.6.6.6.6.7.6.6.6.6.8.y.u.u.r.;.=.=.:.t.u.u.u.u.u.u.t.7.6.6.6.6.6.6.4.-.=.-.:.r.u.u.u.",
"9.9.9.9.9.9.8.0.y.u.u.u.u.u.u.u.u.u.u.t.6.6.6.6.8.8.9.9.9.9.9.0.y.u.u.r.>.;.;.,.t.u.u.u.u.u.u.t.9.9.9.9.9.9.9.7.,.>.>.<.w.t.t.t.",
"z.z.z.x.z.z.z.k.p.i.u.u.i.i.i.i.u.u.u.t.7.6.6.0.k.z.z.z.z.z.z.k.i.u.y.y.r.r.r.r.u.u.i.u.u.u.u.p.l.z.z.z.z.z.z.z.k.k.l.g.1.:.:.>.",
"v.b.b.b.b.b.b.x.i.u.u.u.i.i.i.i.u.u.u.y.7.6.6.q.c.b.b.b.b.b.b.c.i.u.u.u.u.u.u.u.u.u.u.u.u.u.u.p.v.b.b.b.b.b.b.b.b.b.n.l.>.*.=.=.",
"b.b.b.b.b.b.b.x.i.u.u.u.i.i.i.i.u.u.u.t.7.6.6.q.c.b.b.b.b.b.b.c.i.u.u.u.u.u.u.u.u.u.u.u.u.u.i.p.c.b.n.n.b.b.b.b.b.b.b.l.>.=.=.=.",
"v.v.v.v.v.v.v.x.i.u.u.u.u.i.u.u.y.y.y.r.7.6.6.0.l.c.c.c.c.c.c.l.u.y.y.y.t.t.t.t.y.y.y.y.y.y.u.i.z.x.c.c.c.c.c.c.c.v.v.k.<.;.;.:.",
"p.p.p.p.p.p.p.p.u.y.u.t.8.8.8.8.8.8.7.7.6.6.6.7.0.0.0.0.0.0.0.0.8.8.8.6.>.:.:.,.7.8.8.8.8.8.8.8.0.0.0.0.0.0.0.q.i.p.a.p.r.e.r.r.",
"u.u.u.u.u.u.u.u.i.u.u.t.7.6.6.6.6.6.6.6.6.6.5.6.6.6.6.6.6.6.6.6.6.6.6.4.-.=.=.;.5.6.6.6.6.6.6.6.6.6.6.6.6.6.6.7.t.u.u.u.u.u.u.u.",
"u.u.u.u.u.u.u.u.u.u.u.t.7.6.6.6.6.6.6.6.6.6.6.6.6.6.6.6.6.6.6.6.6.6.6.4.-.*.=.;.5.6.6.6.6.6.6.6.6.6.6.6.6.6.6.7.y.u.u.u.u.y.u.u.",
"u.u.u.u.i.p.i.i.i.i.p.y.6.5.6.6.8.8.8.8.6.6.6.6.7.7.7.7.7.7.7.7.7.7.7.6.>.:.:.,.7.8.8.8.8.8.8.8.8.8.8.8.7.8.8.0.u.p.i.i.i.i.i.i.",
"u.u.u.a.x.c.c.x.c.c.c.g.>.;.-.2.j.z.z.h.8.6.6.8.t.t.t.t.t.t.t.t.t.t.t.u.j.k.k.k.z.z.z.z.z.z.z.z.z.z.l.z.z.z.z.z.x.c.c.c.c.v.c.c.",
"u.u.u.a.v.b.b.b.n.b.n.j.:.=.*.<.x.b.n.z.8.5.7.8.y.u.u.u.u.u.u.u.u.u.u.a.v.b.b.b.b.b.b.b.b.b.b.b.b.b.b.b.b.b.b.b.b.b.b.b.b.b.b.b.",
"u.u.u.a.b.b.b.b.b.b.n.j.:.=.*.<.x.n.b.z.8.6.6.8.y.u.u.u.u.u.u.u.i.u.u.a.v.b.b.b.b.b.b.b.b.b.b.b.b.b.b.b.b.b.b.b.b.b.b.b.b.b.b.b.",
"u.u.u.a.x.c.c.c.c.c.c.g.>.-.-.1.l.c.c.k.8.6.6.8.t.y.y.y.u.u.u.u.t.t.t.i.x.v.v.v.v.v.v.v.c.c.c.c.c.c.c.c.c.c.c.c.b.n.b.b.v.v.v.c.",
"u.u.u.y.q.0.0.0.0.0.0.9.5.4.4.5.0.0.0.0.6.6.6.6.8.8.8.9.t.u.u.r.,.>.:.1.u.s.a.a.a.a.a.i.w.0.0.0.0.0.0.0.0.0.0.e.x.b.b.c.s.p.a.a.",
"u.u.u.t.6.6.6.6.6.6.6.6.6.6.6.6.6.6.6.6.6.6.6.6.6.6.6.8.y.u.u.e.;.=.=.:.t.u.u.u.u.u.u.y.7.6.6.6.6.6.6.6.6.6.5.9.x.b.b.c.p.u.u.u.",
"u.u.u.t.7.6.6.6.6.6.6.6.6.6.7.6.6.6.6.6.6.6.6.6.6.6.6.8.y.u.u.e.;.=.=.:.t.u.u.u.u.y.u.t.7.6.6.6.7.6.6.6.6.6.6.9.x.b.b.c.p.u.u.u.",
"i.u.u.t.9.7.7.7.8.8.8.8.6.6.6.6.6.6.6.6.8.9.8.8.8.9.8.9.t.y.y.e.;.=.=.:.r.y.t.y.i.i.i.u.9.8.8.8.8.8.8.8.7.7.7.0.z.v.v.x.p.u.u.u.",
"u.u.u.u.t.t.t.i.k.z.z.g.8.6.6.6.6.6.5.0.k.z.z.z.z.z.z.h.0.7.8.6.-.=.=.;.7.8.8.q.l.x.x.x.z.z.x.z.z.z.z.k.u.t.t.y.p.a.a.p.i.u.u.u.",
"u.u.u.u.u.u.u.a.v.b.n.l.8.6.6.7.6.6.6.q.c.n.b.b.b.b.n.z.8.6.6.4.-.=.=.;.5.6.6.0.c.b.b.b.b.b.b.b.b.b.b.c.p.u.u.u.u.u.y.u.u.u.u.u.",
"y.u.u.u.u.u.u.a.v.b.b.l.8.7.6.7.6.6.7.q.v.b.b.b.b.b.b.z.8.6.6.4.-.*.=.;.5.6.6.0.x.b.n.b.b.b.v.b.b.b.b.c.p.u.u.u.u.u.u.u.y.u.u.u.",
"t.t.t.y.y.u.u.p.c.v.v.k.9.7.7.7.6.6.6.0.x.v.v.v.v.v.v.l.9.7.7.5.>.:.:.,.7.8.8.w.z.v.v.v.v.v.v.v.v.v.v.x.a.i.i.i.p.i.i.p.y.t.t.t.",
">.>.>.2.y.u.u.i.a.a.a.p.t.y.t.r.7.6.6.8.p.a.s.a.a.a.a.p.y.t.t.u.h.j.k.k.l.l.l.k.s.a.a.a.a.a.a.a.a.a.a.s.x.x.x.x.x.x.c.j.2.>.>.>.",
"=.=.*.>.t.u.u.u.u.u.u.u.u.u.u.t.7.6.6.8.y.u.u.u.u.u.u.u.y.u.u.a.v.n.b.b.b.b.b.c.i.y.y.u.u.u.u.u.u.u.u.p.c.b.b.b.b.b.b.l.>.*.=.=.",
"=.=.=.>.y.u.u.u.u.u.u.y.i.u.u.t.7.6.6.8.y.u.u.u.u.u.u.u.y.u.u.s.v.b.v.b.b.b.b.c.p.u.i.i.u.y.u.u.u.u.u.p.c.b.b.b.b.b.b.l.>.=.=.=.",
";.:.-.<.t.y.y.y.y.y.y.y.y.y.y.r.7.6.6.8.t.y.y.y.y.y.u.y.y.y.y.p.b.b.b.b.b.b.b.c.i.y.y.y.y.y.y.y.y.y.y.i.z.c.c.c.c.x.c.k.<.-.;.;.",
"e.e.e.w.7.8.8.8.8.8.8.8.8.8.8.8.6.6.6.6.7.8.8.8.8.8.8.8.8.8.8.w.c.b.b.b.b.b.b.z.q.8.8.8.8.8.8.8.8.8.8.8.0.q.q.q.q.q.q.q.e.e.e.e.",
"u.u.u.t.7.6.6.7.6.6.6.6.6.6.6.6.6.6.6.6.6.6.6.6.6.5.6.6.6.6.6.0.c.b.b.b.b.b.b.z.8.6.6.6.6.6.6.6.6.6.6.6.6.6.7.6.6.6.6.8.y.u.u.u.",
"u.u.u.t.7.6.6.6.6.6.6.6.6.6.6.6.6.6.6.6.6.6.6.6.6.6.6.6.6.6.6.q.c.b.b.b.b.b.b.z.9.6.6.6.6.6.6.6.6.6.6.6.6.6.6.6.6.6.6.7.y.u.u.u.",
"u.u.u.t.9.8.8.8.8.8.8.8.8.8.8.8.8.8.8.8.8.8.8.7.7.7.7.7.6.6.6.0.z.c.c.c.c.c.c.l.8.5.5.5.7.6.6.6.7.7.7.7.7.7.7.7.8.8.8.9.u.i.i.i.",
"u.u.u.p.k.l.l.l.l.l.l.l.l.l.l.l.l.l.k.l.l.l.l.j.y.t.t.e.7.6.6.7.0.q.q.q.q.q.q.8.>.;.;.>.5.6.6.7.r.t.t.t.t.t.t.u.k.l.l.k.x.x.x.x.",
"u.u.u.p.v.b.b.v.b.b.b.b.b.b.b.b.b.b.v.b.b.b.b.c.i.u.u.t.7.6.6.6.6.6.6.6.6.6.6.4.-.=.=.;.5.6.6.8.y.u.u.u.u.u.u.p.v.b.b.b.b.b.b.b.",
"u.u.u.a.v.b.b.b.b.b.b.b.b.b.b.b.n.b.b.b.b.b.b.x.i.u.u.t.7.6.6.6.6.6.6.6.6.6.6.4.;.=.=.;.5.6.7.7.y.u.u.u.u.u.u.p.c.b.b.b.b.n.b.b.",
"y.u.u.a.c.v.v.v.v.v.v.v.v.c.c.c.c.v.c.c.c.c.c.z.u.y.y.r.7.6.6.6.7.7.7.7.7.7.7.5.>.:.:.>.7.8.8.9.y.u.u.u.y.y.y.i.z.c.c.c.v.v.v.b.",
"u.u.u.i.p.a.a.a.a.a.a.i.q.q.q.q.q.q.q.0.q.q.q.q.8.8.8.8.6.6.6.7.r.t.t.t.t.r.t.u.h.j.j.j.l.l.l.j.i.u.u.y.9.8.8.8.q.q.q.w.p.a.a.a.",
"u.u.u.u.u.u.u.u.u.u.u.t.6.6.6.6.6.6.6.6.6.6.6.6.6.6.6.6.6.6.6.8.y.u.u.u.u.u.u.a.v.b.b.b.b.b.b.c.p.u.u.y.7.6.6.6.6.6.6.7.y.u.u.u.",
"u.u.u.u.u.u.u.u.u.u.u.t.6.6.6.6.6.6.6.6.6.6.6.5.6.6.6.6.6.6.6.8.y.u.u.u.u.u.u.p.v.b.b.b.b.b.b.c.p.u.u.y.7.6.6.6.6.6.6.7.y.u.u.u.",
"y.y.y.y.y.y.y.y.y.y.y.r.7.6.6.6.5.5.5.6.8.8.8.8.8.8.8.8.6.7.7.8.y.u.u.u.u.u.i.p.v.v.v.v.c.c.c.z.i.y.y.t.7.6.6.6.7.7.7.8.y.i.u.u.",
"8.8.8.8.8.8.8.8.8.8.8.8.6.6.6.4.:.;.;.2.h.l.l.l.l.l.l.j.y.t.t.t.u.u.u.u.u.u.u.u.a.s.a.i.w.q.q.q.8.8.8.8.6.6.6.7.r.t.t.t.u.u.u.i.",
"6.6.6.6.6.6.6.6.6.6.6.6.6.6.6.4.-.=.*.1.z.n.b.b.b.b.b.c.p.u.u.u.u.u.u.u.u.u.u.u.u.u.u.t.7.6.6.6.6.6.6.6.6.6.6.7.y.u.u.u.u.u.y.u.",
"6.6.6.6.6.6.6.6.6.6.6.6.6.6.6.4.-.=.=.1.x.b.b.b.b.b.b.x.i.u.u.u.u.u.u.u.u.u.u.y.u.u.u.t.7.6.7.6.6.6.6.6.6.6.6.7.y.u.u.u.u.u.u.u.",
"6.6.7.6.6.6.6.6.6.6.6.6.6.6.6.4.-.=.=.1.x.b.b.v.b.b.b.x.p.u.u.i.u.u.u.u.u.u.u.u.u.u.u.y.7.6.6.6.6.6.6.6.6.6.6.7.y.u.i.u.i.u.u.u."
};
