/* XPM */
static char *_a48111937bd4408e29394fc901de9a2FQd30mX9m8WzLx3J[] = {
/* columns rows colors chars-per-pixel */
"64 64 138 2 ",
"   c #48371D",
".  c #4C391E",
"X  c #4D3D24",
"o  c #503F25",
"O  c #514026",
"+  c #66512E",
"@  c #6A522C",
"#  c #675334",
"$  c #6B5533",
"%  c #6E5A35",
"&  c #745C34",
"*  c #795E33",
"=  c #755E39",
"-  c #795F3A",
";  c #776036",
":  c #7B6235",
">  c #76603A",
",  c #7D643B",
"<  c #7E683C",
"1  c #7B6241",
"2  c #82663C",
"3  c #846A3D",
"4  c #856B41",
"5  c #8A6E44",
"6  c #8E774B",
"7  c #957C4B",
"8  c #997E4D",
"9  c #9E844D",
"0  c #9E8452",
"q  c #A2844E",
"w  c #A28652",
"e  c #A48852",
"r  c #A98957",
"t  c #A68758",
"y  c #A68A5B",
"u  c #AC8D5C",
"i  c #B18F5A",
"p  c #AF905A",
"a  c #B5915D",
"s  c #B4905C",
"d  c #B5925C",
"f  c #B4935D",
"g  c #B6935D",
"h  c #B4935E",
"j  c #B5945E",
"k  c #B6955F",
"l  c #B5965F",
"z  c #B3915C",
"x  c #AE8F61",
"c  c #AE8F60",
"v  c #AF9061",
"b  c #AF9864",
"n  c #B39360",
"m  c #B39362",
"M  c #B39561",
"N  c #B29462",
"B  c #B49461",
"V  c #B79660",
"C  c #B79661",
"Z  c #B69761",
"A  c #B59562",
"S  c #B49463",
"D  c #B49662",
"F  c #B69663",
"G  c #B79663",
"H  c #B19764",
"J  c #B39765",
"K  c #B19766",
"L  c #B49664",
"P  c #B79764",
"I  c #B49461",
"U  c #B89761",
"Y  c #BA9662",
"T  c #BB9763",
"R  c #B89764",
"E  c #B89666",
"W  c #B99767",
"Q  c #BA9666",
"!  c #BA9763",
"~  c #B39863",
"^  c #B29963",
"/  c #B79861",
"(  c #B09965",
")  c #B29865",
"_  c #B09967",
"`  c #B39966",
"'  c #B29867",
"]  c #B19A66",
"[  c #B69864",
"{  c #B79862",
"}  c #BA9A61",
"|  c #B99862",
" . c #B89962",
".. c #B99863",
"X. c #B89963",
"o. c #BB9862",
"O. c #BA9963",
"+. c #B99A63",
"@. c #BC9963",
"#. c #B89865",
"$. c #BA9964",
"%. c #BB9A64",
"&. c #BA9B64",
"*. c #BB9A65",
"=. c #B99B67",
"-. c #BB9A67",
";. c #BC9864",
":. c #BD9864",
">. c #BD9965",
",. c #BD9A64",
"<. c #BC9B65",
"1. c #BC9866",
"2. c #BD9967",
"3. c #BE9867",
"4. c #BB9964",
"5. c #B29569",
"6. c #B59969",
"7. c #B79B6B",
"8. c #BB9B68",
"9. c #BB9B6A",
"0. c #BB9D69",
"q. c #BA9C6A",
"w. c #BB9D6B",
"e. c #BC9C6B",
"r. c #BC9B6A",
"t. c #BCA06E",
"y. c #C1A371",
"u. c #C2A472",
"i. c #C4A674",
"p. c #C9A777",
"a. c #C6A874",
"s. c #C7A975",
"d. c #C5A977",
"f. c #C7A977",
"g. c #C8A875",
"h. c #C9A976",
"j. c #C8A877",
"k. c #C8AA78",
/* pixels */
"p.p.j.i.H ^ H H b ( F ( ` b 5.' b b b ( d.d.d.j.j.d.j.g.u.u.t.t.b b ( ( j.j.j.j.h.h.h.j.j.j.k.p.j.k.p.p.j.j.j.d.k.d.d.d.` b H H ",
"Q G F G 9 9 8 9 8 9 8 8 9 9 8 9 9 9 9 9 G G G G Q G G G p p l p 0 9 8 9 G G O.G <.k O.%.T ` F G F F W F @.@.T T G Q G H 0 9 8 9 ",
"3.@.8.G q 9 w 9 0 0 q 0 w q 0 0 q q q q O.%.,.%.%.%.O.O.f p f f 0 0 9 q F %.,.%.k ,.,.,.,.O.,.%.W %.r.,.,.k ,.,.<.O.%.O.w 0 0 w ",
":.T T G q q q q q q w q 0 0 0 0 q q q q T O.3.T O.[ O.O.f p f d 9 9 q w Q %.%.%.y.k ,.k T 3.3.T %.%.%.Q ,.,.,.} O.O.,.O.e 9 9 9 ",
"@.@.,.O.k k k k p u p p 2 : : 2 e p p p d d d f e e q q q e q q 9 9 q q e q e e q q q q p d d p e e q r g g d d k k } } q 9 q 9 ",
"@.@.@.@.%.%.O.@.f h h p * & & * p f f f d p d p q q q q q q 9 9 9 9 9 9 9 9 9 9 9 q q q p d d p q 9 q q i i i d ,.k y.l e 9 9 9 ",
"O.O.@.@.@.@.@.O.z z z p : & & ; p d d p d d d p q q q q q 9 q 9 9 9 0 0 9 9 9 q q q q q d d d p q q q q i g d d ,.,.t.l q 9 9 9 ",
"O.O.@.@.@.@.@.O.z p z u : * * : p f p d f d d d q q q q q q q 9 9 9 0 9 9 q q q q q q q p d d p q q q q d s d i ,.k } l e 9 q 9 ",
"l O.@.@.@.O.O.O.e q q w 9 9 0 7 9 e e q q e e e u z i p z p u u < : : : G [ k l O.[ k k s s f d O.k G k G O.O.T ,.} <.O.e 9 9 9 ",
"} O.@.O.@.O.O.O.q q q 9 9 0 0 9 9 e 9 9 9 9 9 9 z h s z z h s u : & & : [ &.O.@.O.O.<.} s s d s O.@.O.O.O.O.O.O.y.k } } e q 9 q ",
"O.O.Q O.O.:.O.O.e 9 9 9 9 q 9 9 9 9 q q q 9 9 9 p p u z p z i u ; ; ; : G [ T Q O.O.O.O.h u z i O.l T O.[ l T O.g ,.k l q q q q ",
"0.0.8.8.8.8.q.=.e q w 0 0 0 0 0 9 9 9 q 9 9 e 9 p l h h H n m c ; ; % < 6.q.8.8.r.q.q.0.F n n n 0.0.r.r.0.0.r.r.y.k ,.t.e 9 9 9 ",
"2 , 2 - < , , , ; ; ; ; < < < < < < , , < < , , 3 3 3 3 4 2 4 4 > = = = 4 3 4 4 , , , < , ; , , , 2 , - , , 2 , 3 5 3 3 3 : < < ",
"@ + @ @ @ @ @ @ @ @ @ @ & & & & & % & & & & & & & & & & & & & & = = = = & & & & @ @ + @ # + + + @ @ @ @ + @ @ + % & & & & & & & ",
"$ $ $ $ % # # % % $ $ $ = > > = > > = > = = = = = - > = = > = = = = = = = = = = $ $ $ $ $ % # $ $ $ $ $ % # $ $ & > ; & ; ; ; ; ",
"@ @ @ @ @ @ @ @ @ @ @ + & & ; % & ; & & & * & * & & & & & & & & & & = & & & = & @ @ @ $ $ # $ $ @ @ @ @ @ @ @ @ & & & % & & & ; ",
"u u y y 7 7 7 7 7 7 7 7 7 7 7 7 7 7 7 8 u x x u p p x u 8 7 7 8 u c u u 7 7 7 7 7 7 7 6 > & = * 8 t t 8 t w t t t t r r u i c c ",
"r.%.r.%.e q w w w w 0 w w w q q q q q e 1.,.,.0.<.<.r.8.e w w e 8.0.r.` e q w w 0 0 0 0 , & & ; E Q Q Y k k s B B n B B 3.3.1.1.",
"Q T %.G q 9 9 9 q q 9 9 9 q q 9 9 9 q q T ,.Q O.T k %.G q q q q T T T G q 9 q 9 0 0 9 0 ; & & ; u h i i s i s i i i a a T :.3.Q ",
"O.%.8.G q 9 0 9 0 0 0 q q 8 9 q q 9 q q T @.@.@.@.O.3.O.q q 9 q O.Q 3.:.q 8 q q 9 0 9 9 : * * : u h i i s s s i i i a i :.T :.:.",
"e e e q 9 9 9 0 2 ; , 2 r i i i i i r i s s k g @.@.@.T q q 9 q i s h h u p u p p u u i r r r r e e q q q q q e q e q q q e e q ",
"q 8 q q 9 q 0 9 * * & & i g i g d d g d i i s s O.@.,.T q q 9 q i i i i z z s s l h s s k s s h q 9 q q q q q q q q q q 9 9 9 q ",
"q q q w q 8 9 0 : * * - u a s s d d d d d s s s T @.,.%.q q q q p h s s z z s s i i s s s s z u 8 q 8 q q q q q q q 8 q q q q 8 ",
"q q q q q q q 0 : * * * u B s s d i d d d s s f @.O.3.,.q q q q p z i z p z z i n n u h s s p z q q q q q q q q q q q q w 8 q q ",
"T T k G T G G G p v v n i s s g g k ,.,.T T O.O.@.@.O.O.e q 9 9 q w e e q q e w 2 : , 2 z l T G s G G G G G G T k :.T k O.O.k T ",
"T ,.@.@.,.,.%.[ =.=.,.=.g s s s k ,.,.,.O.3.@.O.@.@.O.T q q 9 9 9 9 9 9 q 9 9 0 ; & & ; H <.3.3.,.%.,.,.O.%.@.@.:.,.,.@.@.@.@.@.",
":.O.@.:.T T O.Q T %.%.T a i s i @.,.,.k Q Q :.Y O.%.O.T q 9 9 0 9 9 9 9 0 0 9 0 , & * ; n r.:.T ,.@.@.@.@.@.:.T k @.@.:.O.O.@.:.",
"%.r.Q r.w.w.8.w.8.e.e.8.B B B B 0.r.,.y.9.e.r.1.r.w.%.%.t 0 w w 0 0 0 0 0 0 0 0 , = & ; 5.e.r.e.e.r.e.r.0.8.8.8.3.<.,.r.r.%.r.,.",
"4 3 3 3 4 4 4 4 , , , , , , - , 2 , 2 - 2 , 2 2 , , 2 - 2 2 , , < , , < < < < < * # $ $ > , , 2 , , , , , , , , 3 3 4 4 3 3 4 3 ",
"& & & % & & % & @ + @ @ + + + @ @ + + @ + + + + + + @ @ % & & & = & = & ; % & & $ $ # $ # + @ @ # + # + + + + @ % & % & & & & * ",
"& ; * & = = = = $ $ $ $ $ $ $ & $ $ $ $ $ $ $ $ $ $ $ & - = & & ; & > & & ; > > & @ $ @ $ $ & @ $ $ $ $ $ & $ @ ; > > & & ; & & ",
"* & & & * & & & @ @ @ @ @ @ @ @ @ @ @ $ # # $ $ $ @ @ @ * % * * & & * & & & & & @ @ @ @ @ @ @ @ @ @ @ @ @ @ @ @ * & & & & & * * ",
"p u u u x u x u u u u u u u u u c y c y & & & & 6 7 7 7 u p p u p p u u t t t t w t w t t t w t u u y u u u u y x u u u 8 7 7 7 ",
"0.<.0.,.r.r.3.,.W %.8.,.Q %.8.8.8.8.8.5., = = > 0 w w q 8.<.0.<.q.=.r.8.B B s B G s S B h h B G %.r.%.3.%.,.%.8.r.r.8.%.w w w w ",
",.@.:.:.3.:.,.@.Q ,.Q @.Q %.%.,.Q Q %.n & = = & 8 0 9 q G O.O.[ [ O.%.Q i i i i i i h l i h i c T @.Q 3.@.T ,.,.Q Q ,.G q 9 q q ",
"O.O.O.O.O.O.} l Q %.%.O.Q %.%.%.%.O.,.G * & * * 8 9 9 q [ %.O.G O.O.%.8.i h h s h h p p u n n n 3.:.O.T O.Q %.O.%.Q %.O.q q 9 q ",
"e q q e q q e q w q e e q q w q q q e e u h p u i i i i z z l l e e q e w q q q 9 9 q 0 3 , 2 3 G ,.@.O.q e q q q q q q q 9 9 9 ",
"9 9 9 q 9 q 9 9 9 9 9 9 9 9 9 9 9 9 q q O.%.%.r.B i z z z z z p q 9 q 9 9 9 9 9 9 9 9 0 * & * * S ,.@.k q q 9 9 9 9 q 9 9 9 9 q ",
"9 9 9 9 q q q q 9 9 q 9 9 9 9 9 9 q q q k O.T :.i i z i z z h z q q 9 9 9 9 9 9 9 9 9 9 : * - * S 3.@.T q q 9 9 9 9 9 9 9 9 9 9 ",
"q q q q 8 q q 8 q q q q q q q q q q q q T @.:.3.g h i h z z z p q q w 9 9 q 9 9 9 9 9 9 : * * * S 3.@.k q q q q q q q q 9 9 q 9 ",
"s k G k i i i u i i u z i u i i l l k O.O.@.@.T e w w q q e e q 9 9 q 9 9 9 q q u p p p r u u r s s s s i i i i z p u p q q q 9 ",
",.,.,.Q s s s s i i s s s s i h <.<.@.@.@.@.@.O.e 9 9 9 q q 9 9 9 9 9 9 9 9 9 q u s z s s s n B s z z i i g i i h l s p q q q 9 ",
"T ` Q %.z u z z p h z i z p z p &.O.O.@.%.Q %.F 0 9 9 9 9 9 9 9 q 9 9 q 0 q q w i z p z i i i i s d h h i i i i i z h h q 9 9 9 ",
"8.8.0.8.h n H h m n n H H h n H q.q.q.0.8.w.w.7.y 0 0 0 0 e 0 0 0 0 w 0 0 w 0 0 h B H s m m m m l k m F m S S B n n n v t 0 t 0 ",
"4 4 4 3 , ; : , 4 1 2 3 2 2 4 < , , 2 : , , , , ; ; ; : < < 1 < 1 3 1 < < , > 2 2 2 2 2 2 4 4 2 : : , * , , * - * 2 * 2 < < < < ",
"& & & % + @ @ @ & & & & & & % & @ @ @ @ @ # + + @ @ + + % & > % % ; & = = = & & & & & % & & & & @ @ @ @ @ @ @ @ @ @ + @ & % & = ",
"- - * & % @ $ $ & & ; & & ; & = @ $ % % @ % # $ @ % % @ = = ; & > & = & = & = = ; ; ; ; = & = & @ $ $ $ $ @ $ $ $ $ # $ = = = = ",
"& & & * @ @ @ @ & & & * & & * * @ @ @ @ @ @ @ @ @ @ @ @ % ; & % & & * & & = = = & & & & & & & * @ @ @ @ @ @ @ @ @ @ @ @ & * & & ",
"r u u u u u u r u u u u u u u i u u u y 7 6 7 7 y u u y 9 7 7 9 7 7 7 7 & = & & 6 7 7 7 7 7 7 7 t t t w r r u u u r u u u u c x ",
"r.,.r.r.0.<.8.r.,.r.0.<.0.0.0.e.0.%.8.%.e 9 q e &.<.0.=.e 9 0 0 e 0 0 0 , = = & 9 t 0 w 0 w q w s T B G y.y.y.,.r.,.3.r.0.,.r.0.",
"G T 3.T O.O.Q %.3.Q T Q T T 3.:.T O.O.k q 9 9 q G 3.T O.q q w 9 0 9 0 8 ; = * * 9 0 0 0 9 9 q q p h i i k k ,.k <.%.Q T :.T :.T ",
"O.:.:.O.O.O.O.%.%.6.Q %.%.:.T :.,.@.,.O.q q q q k ,.T O.w q 9 9 q q 9 9 * & * * 7 9 9 q q 0 q q z h s s l t.} l ,.%.%.Q T 3.,.:.",
"s k d p e q e w 3 , 3 3 n ,.%.3.,.,.@.@.k [ k G O.@.%.O.q q 9 9 l G G k e r r u u p p p q q q 9 q q q q e e e e e q e q i s f g ",
"s s d p q q 9 9 * & & & m 8.@.@.} k @.@.@.@.@.@.@.@.O.G q q q q [ ,.O.O.d d s s z z l z q q 9 9 9 9 9 9 9 9 9 q q q q q i s d s ",
"s s d p q q q q : & & & H %.T O.O.O.@.@.@.@.@.@.@.@.@.O.q q q q G @.,.O.d d d d p z z p q q 9 9 9 9 q q q q q q q q q q i d d d ",
"s f p p q q q q : * * : n O.G O.O.O.O.O.@.@.@.@.@.@.:.T e q 9 q T T :.:.d i d s p z z p q q q 9 q 9 q 9 q q q q 8 q q q p d p d ",
"O.T T Q k [ k [ 9 9 0 9 9 q q e w q e r k ,.@.:.T 3.O.G q 9 9 q [ O.T @.T O.T T e q q q i i i i k l l G k G T T :.g G k T T T T ",
"@.@.O.,.%.%.%.%.9 9 0 0 0 9 q q q q 8 q @.@.Q ,.O.,.@.O.e 9 9 w [ O.3.,.@.@.O.O.e 9 q q i i i z O.&.O.@.O.T 3.B ,.,.:.:.:.T T :.",
"@.T %.T O.O.O.[ 9 9 9 9 9 9 9 9 9 9 q w T T @.@.O.O.Q T q 9 9 q O.@.O.O.O.T T T w 9 9 q i z u z O.O.Q Q O.T Q Q :.@.@.:.T ,.O.@.",
"8.%.8.q.%.=.q.q.e 0 0 0 0 0 0 e 0 w 0 w q.r.8.8.8.%.8.8.w w 0 t ` =.<.q.%.8.8.q.t 0 w 0 z l l H w.w.t.w.8.8.9.9.3.<.r.0.8.8.8.%.",
"5 2 5 4 5 4 5 2 < < < , < 1 4 4 > > , * - 2 2 2 5 5 5 5 - - ; , 3 3 5 2 5 3 5 4 < < < , * , , = @ # @ # 1 1 > 4 , , , , 4 4 4 4 ",
"% & % & % % % & & % & = > < 1 > $ # # + + + + # = , - = # $ @ @ % & % & % % % & & & & = # + + # .     . # $ + + + + + # % & & & ",
"= = = = = = > > = > = = 1 1 1 1 $ $ $ $ $ $ $ $ > , , 1 $ $ $ $ & > = = = = = = = & = = $ $ $ # o X X O # $ $ # $ $ $ $ = = = = ",
"= = = = = = = > % = > > , 1 1 1 $ # $ $ $ $ $ $ 1 1 1 > $ # $ $ = > = = = = = = & = = = $ # $ # X X X o # $ # $ $ $ # # = = = = "
};
